<svg width="240" height="128" viewBox="0 0 240 128" fill="none" xmlns="http://www.w3.org/2000/svg">
<path d="M198.579 44.0038L196.152 36.4067L188.621 38.9228L186.36 31.8426L172.388 36.5075L170.623 30.9909L151.344 37.4275L150.199 33.8418L126.75 41.6763L126.34 40.3987L100.223 49.1206L100.554 50.1576L77.1047 57.992L78.2496 61.5776L58.9735 68.0174L60.7386 73.5373L46.7672 78.2022L49.0316 85.2824L41.5005 87.7985L44.0067 95.6362L5.6515 108.448L0 90.7632L7.52792 88.2471L4.88504 79.9804L18.8564 75.3155L16.592 68.2352L35.8713 61.7954L34.1062 56.2756L57.555 48.4444L56.4101 44.8588L82.8961 36.0101L82.4859 34.7326L120.841 21.9212L120.917 22.1617L132.418 18.3225L132.825 19.6001L159.311 10.7514L160.459 14.3371L183.908 6.50591L185.673 12.0258L204.949 5.58594L207.213 12.6662L221.185 7.99803L223.828 16.2648L231.355 13.7487L236.934 31.1924L198.579 44.0038Z" fill="black"/>
<path d="M38.5403 92.2405L36.2505 85.0725L43.7784 82.5564L41.514 75.4762L55.4853 70.8113L53.7234 65.2914L72.9995 58.8516L71.8546 55.266L95.3034 47.4316L94.8932 46.154L102.443 43.6346L102.52 43.8752L129.006 35.0265L129.413 36.3041L152.865 28.4729L154.01 32.0586L173.289 25.6188L175.054 31.1386L189.022 26.4737L191.287 33.5507L198.818 31.0378L201.108 38.2058L201.244 38.6349L231.684 28.4664L231.544 28.0406L228.694 19.1172L221.163 21.63L218.52 13.3665L204.549 18.0314L202.288 10.9512L183.008 17.391L181.243 11.8711L157.794 19.7056L156.649 16.1199L130.16 24.9653L129.753 23.6878L118.253 27.5302L118.177 27.2864L87.7405 37.4549L88.1476 38.7325L61.6616 47.5811L62.8097 51.1667L39.3577 58.9979L41.1228 64.5177L21.8466 70.9576L24.1078 78.0378L10.1397 82.7027L12.7826 90.9694L5.25146 93.4856L8.10425 102.409L8.31733 103.075L38.7566 92.9102L38.5403 92.2405Z" fill="#70747C"/>
<path d="M128.793 124.05L128.675 123.68L122.976 125.585L122.346 123.618L109.221 128L107.459 122.483L95.8378 126.365L93.1217 117.874L83.5711 121.063L80.0886 110.173L73.165 112.484L69.0973 99.7669L65.3667 101.012L54.0542 65.6303L57.7847 64.382L53.7202 51.6649L60.6439 49.3503L57.1614 38.4601L66.712 35.2679L63.9991 26.7768L75.617 22.8953L73.8551 17.3787L86.9805 12.9934L86.3507 11.0267L107.535 3.94971L107.656 4.3203L113.352 2.41859L113.982 4.38532L127.107 0L128.869 5.5166L140.49 1.63515L143.206 10.1295L152.757 6.93719L156.239 17.8306L163.163 15.516L167.231 28.2364L170.961 26.9881L182.274 62.373L178.543 63.618L182.608 76.3384L175.684 78.6497L179.166 89.5431L169.616 92.7321L172.329 101.226L160.711 105.108L162.473 110.625L149.347 115.007L149.977 116.973L128.793 124.05Z" fill="black"/>
<path d="M163.311 33.6266L159.406 21.4134L152.756 23.6336L149.413 13.1726L140.238 16.2381L137.63 8.08185L126.473 11.8105L124.778 6.51172L112.174 10.7215L111.57 8.83279L106.097 10.663L105.982 10.3054L91.4987 15.1426L92.103 17.0313L79.4992 21.2443L81.1912 26.5399L70.0313 30.2685L72.6392 38.4248L63.467 41.487L66.8096 51.9481L60.1626 54.1716L64.0681 66.3848L60.4838 67.5811L64.6978 80.7663L65.2162 82.3852L69.4334 95.5705L73.0144 94.3742L76.9199 106.587L83.5701 104.367L86.9126 114.828L96.088 111.763L98.6959 119.919L109.853 116.193L111.548 121.489L124.151 117.279L124.756 119.168L130.229 117.341L130.344 117.695L144.827 112.858L144.223 110.969L156.827 106.76L155.135 101.461L166.294 97.7322L163.687 89.5792L172.859 86.5137L169.516 76.0527L176.163 73.8324L172.261 61.6192L175.842 60.4196L171.628 47.2377L171.11 45.6155L166.892 32.4303L163.311 33.6266Z" fill="#FFC338"/>
<path d="M119.159 109.626L119.082 109.385L107.582 113.225L107.175 111.947L80.6858 120.792L79.5409 117.207L56.0921 125.041L54.327 119.521L35.0476 125.961L32.7864 118.881L18.8151 123.546L16.1722 115.282L8.64109 117.795L3.06592 100.351L41.4211 87.5401L43.8477 95.1372L51.3788 92.6243L53.64 99.7046L67.6114 95.0364L69.3765 100.556L88.6558 94.1164L89.8008 97.7021L113.25 89.8709L113.66 91.1485L139.777 82.4233L139.446 81.3863L162.895 73.5552L161.75 69.9696L181.026 63.5297L179.261 58.0099L193.232 53.3417L190.968 46.2648L198.499 43.7487L195.993 35.911L234.345 23.0996L240 40.7839L232.472 43.2968L235.115 51.5636L221.143 56.2317L223.408 63.3119L204.128 69.7518L205.894 75.2683L182.445 83.1028L183.59 86.6884L157.104 95.5338L157.511 96.8146L119.159 109.626Z" fill="black"/>
<path d="M11.3059 112.428L18.837 109.912L21.4799 118.179L35.4513 113.514L37.7125 120.591L56.9919 114.154L58.757 119.671L82.2058 111.84L83.3507 115.426L109.84 106.577L110.247 107.858L121.744 104.015L121.824 104.256L152.26 94.0906L151.853 92.813L178.339 83.9643L177.19 80.3787L200.642 72.5443L198.877 67.0277L218.154 60.5879L215.889 53.5077L229.86 48.8395L227.218 40.576L234.749 38.0599L231.896 29.1365L231.683 28.4668L201.244 38.6353L201.457 39.3049L203.75 46.4729L196.222 48.9891L198.483 56.066L184.515 60.7342L186.277 66.254L167.001 72.6938L168.146 76.2795L144.697 84.1106L145.107 85.3882L137.557 87.9108L137.48 87.6702L110.994 96.5156L110.584 95.2381L87.1353 103.073L85.9904 99.4869L66.711 105.923L64.9459 100.407L50.9778 105.072L48.7134 97.9915L41.1823 100.508L38.8924 93.3396L38.7557 92.9105L8.31641 103.076L8.45316 103.505L11.3059 112.428Z" fill="#8B9099"/>
<path d="M75.4727 41.7344L84.3172 38.7793L87.2081 47.8204L78.3635 50.7755L75.4727 41.7344Z" fill="black"/>
<path d="M143.664 61.4414L152.508 58.4863L155.399 67.5274L146.554 70.4825L143.664 61.4414Z" fill="black"/>
<path d="M76.3159 74.9863L85.1605 72.0312L88.0514 81.0724L79.2068 84.0275L76.3159 74.9863Z" fill="black"/>
<path d="M124.881 18.002L133.725 15.0469L136.616 24.088L127.772 27.0431L124.881 18.002Z" fill="black"/>
<path d="M138.349 25.7305L147.194 22.7754L150.085 31.8165L141.24 34.7716L138.349 25.7305Z" fill="black"/>
<path d="M150.679 33.6777L159.524 30.7226L162.415 39.7638L153.57 42.7189L150.679 33.6777Z" fill="black"/>
<path d="M141.204 72.2715L146.557 70.4829L148.307 75.9551L142.953 77.7438L141.204 72.2715Z" fill="black"/>
<path d="M86.271 48.1348L108.896 40.5753L111.787 49.6165L89.1619 57.1759L86.271 48.1348Z" fill="black"/>
</svg>
