<svg width="100" height="100" viewBox="0 0 100 100" fill="none" xmlns="http://www.w3.org/2000/svg">
<rect width="100" height="100" rx="50" fill="#8EC96D"/>
<mask id="mask0_236_3908" style="mask-type:alpha" maskUnits="userSpaceOnUse" x="0" y="0" width="100" height="100">
<path d="M0 50C0 77.6142 22.3858 100 50 100C77.6142 100 100 77.6142 100 50C100 22.3858 77.6142 0 50 0C22.3858 0 0 22.3858 0 50Z" fill="#8EC96D"/>
</mask>
<g mask="url(#mask0_236_3908)">
<path d="M79.2298 93.853H73.3564V100H79.2298V93.853Z" fill="#AD5012"/>
<path d="M73.3565 93.853H67.4832V100H73.3565V93.853Z" fill="#AD5012"/>
<path d="M67.4832 93.853H61.6099V100H67.4832V93.853Z" fill="#AD5012"/>
<path d="M61.6099 93.853H55.7366V100H61.6099V93.853Z" fill="#AD5012"/>
<path d="M43.9899 93.853H38.1166V100H43.9899V93.853Z" fill="#AD5012"/>
<path d="M38.1165 93.853H32.2432V100L38.1165 100V93.853Z" fill="#AD5012"/>
<path d="M32.2433 93.853H26.37V100H32.2433V93.853Z" fill="#AD5012"/>
<path d="M26.3699 93.853H20.4966L20.4966 100H26.3699V93.853Z" fill="#AD5012"/>
<path d="M43.9899 100H49.8632H55.7365V93.853H61.6099V87.9796H55.7365H49.8632H43.9899H38.1166V93.853H43.9899V100Z" fill="#D87E54"/>
<path d="M55.7365 58.6131H49.8632V64.4864H55.7365V58.6131Z" fill="#BE5E3F"/>
<path d="M61.6099 52.7398H55.7366V58.6131H61.6099V52.7398Z" fill="#3D0509"/>
<path d="M43.9899 52.7398H38.1166V58.6131H43.9899V52.7398Z" fill="#3D0509"/>
<path d="M67.4832 46.8665H61.6098H55.7365H49.8631H43.9898H38.1164H32.2431V52.7399H26.3698V58.6132V64.4865H32.2431V70.3599H38.1164V64.4865H43.9898H49.8631V58.6132H55.7365V52.7399H61.6098V58.6132H55.7365V64.4865H61.6098V70.3599H67.4832V64.4865H73.3565V58.6132V52.7399H67.4832V46.8665ZM38.1166 58.6131V52.7398H43.99V58.6131H38.1166Z" fill="#FF9969"/>
<path d="M85.1032 40.9932H79.2299V46.8665H85.1032V40.9932Z" fill="#AD5012"/>
<path d="M79.2298 40.9932H73.3564V46.8665H79.2298V40.9932Z" fill="#AD5012"/>
<path d="M73.3565 40.9932H67.4832V46.8665H73.3565V40.9932Z" fill="#AD5012"/>
<path d="M67.4832 40.9932H61.6099V46.8665H67.4832V40.9932Z" fill="#AD5012"/>
<path d="M61.6099 40.9932H55.7366V46.8665H61.6099V40.9932Z" fill="#AD5012"/>
<path d="M55.7365 40.9932H49.8632V46.8665H55.7365V40.9932Z" fill="#AD5012"/>
<path d="M49.8632 40.9932H43.9899V46.8665H49.8632V40.9932Z" fill="#AD5012"/>
<path d="M43.9899 40.9932H38.1166V46.8665H43.9899V40.9932Z" fill="#AD5012"/>
<path d="M38.1165 40.9932H32.2432V46.8665H38.1165V40.9932Z" fill="#AD5012"/>
<path d="M32.2433 40.9932H26.37V46.8665H32.2433V40.9932Z" fill="#AD5012"/>
<path d="M26.3699 40.9932H20.4966V46.8665H26.3699V40.9932Z" fill="#AD5012"/>
<path d="M20.4966 40.9932H14.6233V46.8665H20.4966V40.9932Z" fill="#AD5012"/>
<path d="M55.7365 76.2331V70.3597H49.8631H43.9899V76.2331H49.8631H55.7365Z" fill="#AD331C"/>
<path d="M61.6099 64.4865H55.7366H49.8632H43.9899H38.1165V70.3598H32.2432V76.2331V82.1065H38.1165V87.9798H43.9899H49.8632H55.7366H61.6099V82.1065H67.4833V76.2331V70.3597H61.6099V64.4865ZM55.7366 76.233H49.8632H43.9899V70.3597H49.8632H55.7366V76.233Z" fill="#5F180A"/>
<path d="M67.4832 35.1199H61.6099V40.9933H67.4832V35.1199Z" fill="#E17A1A"/>
<path d="M55.7365 35.1199H49.8632V40.9933H55.7365V35.1199Z" fill="#E17A1A"/>
<path d="M43.9899 35.1199H38.1166V40.9933H43.9899V35.1199Z" fill="#E17A1A"/>
<path d="M61.6099 29.2466H55.7366V35.1199H61.6099V29.2466Z" fill="#E17A1A"/>
<path d="M49.8632 29.2466H43.9899V35.1199H49.8632V29.2466Z" fill="#E17A1A"/>
<path d="M38.1165 29.2466H32.2432V35.1199H38.1165V29.2466Z" fill="#E17A1A"/>
<path d="M55.7365 23.3732H49.8632V29.2466H55.7365V23.3732Z" fill="#E17A1A"/>
<path d="M43.9899 23.3732H38.1166V29.2466H43.9899V23.3732Z" fill="#E17A1A"/>
<path d="M61.6099 35.1199H55.7366V40.9933H61.6099V35.1199Z" fill="#F2B21F"/>
<path d="M49.8632 35.1199H43.9899V40.9933H49.8632V35.1199Z" fill="#F2B21F"/>
<path d="M38.1165 35.1199H32.2432V40.9933H38.1165V35.1199Z" fill="#F2B21F"/>
<path d="M67.4832 29.2466H61.6099V35.1199H67.4832V29.2466Z" fill="#F2B21F"/>
<path d="M55.7365 29.2466H49.8632V35.1199H55.7365V29.2466Z" fill="#F2B21F"/>
<path d="M43.9899 29.2466H38.1166V35.1199H43.9899V29.2466Z" fill="#F2B21F"/>
<path d="M61.6099 23.3732H55.7366V29.2466H61.6099V23.3732Z" fill="#F2B21F"/>
<path d="M49.8632 23.3732H43.9899V29.2466H49.8632V23.3732Z" fill="#F2B21F"/>
<path d="M85.1032 93.853H79.2299V100H85.1032V93.853Z" fill="#090216"/>
<path d="M20.4966 93.853H14.6233L14.6875 100H20.4966V93.853Z" fill="#090216"/>
<path d="M26.3699 87.9796H20.4966V93.853H26.3699H32.2432H38.1165V87.9796V82.1064H32.2432V87.9796H26.3699Z" fill="#090216"/>
<path d="M61.6099 87.9796V93.853H67.4831H73.3565H79.2298V87.9796H73.3565H67.4831V82.1064H61.6099V87.9796Z" fill="#090216"/>
<path d="M26.37 76.233V82.1064H32.2433V76.233V70.3597V64.4865H26.37V70.3597V76.233Z" fill="#090216"/>
<path d="M67.4832 70.3597V76.233V82.1064H73.3565V76.233V70.3597V64.4865H67.4832V70.3597Z" fill="#090216"/>
<path d="M73.3565 46.8665H67.4832V52.7398H73.3565V58.6131V64.4865H79.2299V58.6131V52.7398H85.1031V46.8665H79.2299H73.3565Z" fill="#090216"/>
<path d="M20.4966 52.7398V58.6131V64.4865H26.37V58.6131V52.7398H32.2432V46.8665H26.37H20.4966H14.6233V52.7398H20.4966Z" fill="#090216"/>
<path d="M90.9765 40.9932H85.1031V46.8665H90.9765V40.9932Z" fill="#090216"/>
<path d="M14.6233 40.9932H8.75V46.8665H14.6233V40.9932Z" fill="#090216"/>
<path d="M79.2299 35.1199H73.3565V29.2466H67.4832V35.1199V40.9932H73.3565H79.2299H85.1031V35.1199H79.2299Z" fill="#090216"/>
<path d="M26.37 35.1199H20.4966H14.6233V40.9932H20.4966H26.37H32.2432V35.1199V29.2466H26.37V35.1199Z" fill="#090216"/>
<path d="M67.4832 23.3732H61.6099V29.2466H67.4832V23.3732Z" fill="#090216"/>
<path d="M38.1165 23.3732H32.2432V29.2466H38.1165V23.3732Z" fill="#090216"/>
<path d="M55.7365 17.5H49.8632H43.9899H38.1166V23.3733H43.9899H49.8632H55.7365H61.6099V17.5H55.7365Z" fill="#090216"/>
</g>
</svg>
