<svg width="100" height="100" viewBox="0 0 100 100" fill="none" xmlns="http://www.w3.org/2000/svg">
<rect width="100" height="100" rx="50" fill="#F2BF30"/>
<mask id="mask0_236_4023" style="mask-type:alpha" maskUnits="userSpaceOnUse" x="0" y="0" width="100" height="100">
<path d="M0 50C0 77.6142 22.3858 100 50 100C77.6142 100 100 77.6142 100 50C100 22.3858 77.6142 0 50 0C22.3858 0 0 22.3858 0 50Z" fill="#F2BF30"/>
</mask>
<g mask="url(#mask0_236_4023)">
<path d="M76.8753 94.7637H71.4776V100H76.8753V94.7637Z" fill="#191D26"/>
<path d="M71.4776 94.7637H66.0799V100H71.4776V94.7637Z" fill="#191D26"/>
<path d="M66.0799 94.7637H60.6821V100H66.0799V94.7637Z" fill="#191D26"/>
<path d="M60.682 94.7637H55.2843V100H60.682V94.7637Z" fill="#191D26"/>
<path d="M44.4888 94.7637H39.0911V100H44.4888V94.7637Z" fill="#191D26"/>
<path d="M39.0911 94.7637H33.6933V100H39.0911V94.7637Z" fill="#191D26"/>
<path d="M33.6933 94.7637H28.2956V100H33.6933V94.7637Z" fill="#191D26"/>
<path d="M28.2956 94.7637H22.8978L22.8977 100H28.2956L28.2956 94.7637Z" fill="#191D26"/>
<path d="M55.2843 89.3667H49.8866V94.7636H55.2843V89.3667Z" fill="#232E35"/>
<path d="M49.8865 89.3667H44.4888V94.7636H49.8865V89.3667Z" fill="#232E35"/>
<path d="M60.682 83.9697H55.2843V89.3667H60.682V83.9697Z" fill="#232E35"/>
<path d="M55.2843 83.9697H49.8866V89.3667H55.2843V83.9697Z" fill="#232E35"/>
<path d="M49.8865 83.9697H44.4888V89.3667H49.8865V83.9697Z" fill="#232E35"/>
<path d="M44.4888 83.9697H39.0911V89.3667H44.4888V83.9697Z" fill="#232E35"/>
<path d="M66.0799 78.5728H60.6821V83.9698H66.0799V78.5728Z" fill="#232E35"/>
<path d="M60.682 78.5728H55.2843V83.9698H60.682V78.5728Z" fill="#232E35"/>
<path d="M55.2843 78.5728H49.8866V83.9698H55.2843V78.5728Z" fill="#232E35"/>
<path d="M49.8865 78.5728H44.4888V83.9698H49.8865V78.5728Z" fill="#232E35"/>
<path d="M44.4888 78.5728H39.0911V83.9698H44.4888V78.5728Z" fill="#232E35"/>
<path d="M39.0911 78.5728H33.6933V83.9698H39.0911V78.5728Z" fill="#232E35"/>
<path d="M60.682 73.1757H55.2843V78.5727H60.682V73.1757Z" fill="#232E35"/>
<path d="M55.2843 73.1757H49.8866V78.5727H55.2843V73.1757Z" fill="#AD331C"/>
<path d="M49.8865 73.1757H44.4888V78.5727H49.8865V73.1757Z" fill="#AD331C"/>
<path d="M44.4888 73.1757H39.0911V78.5727H44.4888V73.1757Z" fill="#232E35"/>
<path d="M55.2843 67.7788H49.8866V73.1758H55.2843V67.7788Z" fill="#232E35"/>
<path d="M49.8865 67.7788H44.4888V73.1758H49.8865V67.7788Z" fill="#232E35"/>
<path d="M55.2843 62.3818H49.8866V67.7788H55.2843V62.3818Z" fill="#BE5E3F"/>
<path d="M60.682 56.9849H55.2843V62.3818H60.682V56.9849Z" fill="#191D26"/>
<path d="M44.4888 56.9849H39.0911V62.3818H44.4888V56.9849Z" fill="#191D26"/>
<path d="M76.8753 51.5879H71.4776V56.9848H76.8753V51.5879Z" fill="#232E35"/>
<path d="M71.4776 51.5879H66.0799V56.9848H71.4776V51.5879Z" fill="#191D26"/>
<path d="M66.0799 51.5879H60.6821V56.9848H66.0799V51.5879Z" fill="#232E35"/>
<path d="M44.4888 94.7637L44.4888 100H49.8866H55.2843V94.7637H49.8866H44.4888Z" fill="#D87E54"/>
<path d="M60.682 89.3667H55.2843V94.7636H60.682V89.3667Z" fill="#D87E54"/>
<path d="M44.4888 89.3667H39.0911V94.7636H44.4888V89.3667Z" fill="#D87E54"/>
<path d="M66.0799 56.9849H60.6821V62.3818H55.2843V67.7788V73.1757H60.6821V78.5728H66.0799V73.1757V67.7788H71.4776V62.3818V56.9849H66.0799Z" fill="#D87E54"/>
<path d="M60.6821 56.9848V51.5879H55.2843H49.8866H44.4888H39.0911V56.9848H44.4888V62.3818H39.0911V56.9848H33.6933H28.2956V62.3818V67.7788H33.6933V73.1757V78.5728H39.0911V73.1757H44.4888V67.7788H49.8866V62.3818H55.2843V56.9848H60.6821Z" fill="#D87E54"/>
<path d="M39.0911 51.5879H33.6933V56.9848H39.0911V51.5879Z" fill="#37474B"/>
<path d="M71.4776 46.1909H66.0799V51.5878H71.4776V46.1909Z" fill="#191D26"/>
<path d="M66.0799 46.1909H60.6821V51.5878H66.0799V46.1909Z" fill="#37474B"/>
<path d="M60.682 46.1909H55.2843V51.5878H60.682V46.1909Z" fill="#232E35"/>
<path d="M55.2843 46.1909H49.8866V51.5878H55.2843V46.1909Z" fill="#232E35"/>
<path d="M49.8865 46.1909H44.4888V51.5878H49.8865V46.1909Z" fill="#232E35"/>
<path d="M44.4888 46.1909H39.0911V51.5878H44.4888V46.1909Z" fill="#232E35"/>
<path d="M39.0911 46.1909H33.6933V51.5878H39.0911V46.1909Z" fill="#232E35"/>
<path d="M66.0799 40.7939H60.6821V46.1908H66.0799V40.7939Z" fill="#232E35"/>
<path d="M60.682 40.7939H55.2843V46.1908H60.682V40.7939Z" fill="#37474B"/>
<path d="M55.2843 40.7939H49.8866V46.1908H55.2843V40.7939Z" fill="#37474B"/>
<path d="M49.8865 40.7939H44.4888V46.1908H49.8865V40.7939Z" fill="#37474B"/>
<path d="M44.4888 40.7939H39.0911V46.1908H44.4888V40.7939Z" fill="#37474B"/>
<path d="M39.0911 40.7939H33.6933V46.1908H39.0911V40.7939Z" fill="#37474B"/>
<path d="M60.682 35.397H55.2843V40.7939H60.682V35.397Z" fill="#232E35"/>
<path d="M55.2843 35.397H49.8866V40.7939H55.2843V35.397Z" fill="#232E35"/>
<path d="M49.8865 35.397H44.4888V40.7939H49.8865V35.397Z" fill="#232E35"/>
<path d="M44.4888 35.397H39.0911V40.7939H44.4888V35.397Z" fill="#232E35"/>
<path d="M82.2731 94.7637H76.8754V100H82.2301L82.2731 94.7637Z" fill="#090216"/>
<path d="M22.8977 94.7637H17.5V100H20.25H22.8977V94.7637Z" fill="#090216"/>
<path d="M28.2956 89.3667H22.8978V94.7636H28.2956H33.6933H39.0911V89.3667V83.9697H33.6933V89.3667H28.2956Z" fill="#090216"/>
<path d="M60.6821 89.3667V94.7636H66.0799H71.4776H76.8754V89.3667H71.4776H66.0799V83.9697H60.6821V89.3667Z" fill="#090216"/>
<path d="M28.2956 78.5728V83.9698H33.6933V78.5728V73.1758V67.7788H28.2956V73.1758V78.5728Z" fill="#090216"/>
<path d="M66.0799 73.1758V78.5728V83.9698H71.4776V78.5728V73.1758V67.7788H66.0799V73.1758Z" fill="#090216"/>
<path d="M71.4776 62.3818V67.7788H76.8753V62.3818V56.9849H71.4776V62.3818Z" fill="#090216"/>
<path d="M22.8978 62.3818V67.7788H28.2956V62.3818V56.9849H22.8978V62.3818Z" fill="#090216"/>
<path d="M82.2731 51.5879H76.8754V56.9848H82.2731V51.5879Z" fill="#090216"/>
<path d="M76.8753 46.1909H71.4776V51.5878H76.8753V46.1909Z" fill="#090216"/>
<path d="M71.4776 40.7939H66.0799V46.1908H71.4776V40.7939Z" fill="#090216"/>
<path d="M28.2956 46.1908V51.5879V56.9848H33.6933V51.5879V46.1908V40.7939H28.2956V46.1908Z" fill="#090216"/>
<path d="M66.0799 35.397H60.6821V40.7939H66.0799V35.397Z" fill="#090216"/>
<path d="M39.0911 35.397H33.6933V40.7939H39.0911V35.397Z" fill="#090216"/>
<path d="M55.2843 30H49.8866H44.4888H39.0911V35.397H44.4888H49.8866H55.2843H60.6821V30H55.2843Z" fill="#090216"/>
</g>
</svg>
