<svg width="100" height="100" viewBox="0 0 100 100" fill="none" xmlns="http://www.w3.org/2000/svg">
<rect width="100" height="100" rx="50" fill="#7B65AD"/>
<mask id="mask0_236_3975" style="mask-type:alpha" maskUnits="userSpaceOnUse" x="0" y="0" width="100" height="100">
<path d="M0 50C0 77.6142 22.3858 100 50 100C77.6142 100 100 77.6142 100 50C100 22.3858 77.6142 0 50 0C22.3858 0 0 22.3858 0 50Z" fill="#7B65AD"/>
</mask>
<g mask="url(#mask0_236_3975)">
<path d="M55.5528 58.8869H49.6795V64.7602H55.5528V58.8869Z" fill="#BE5E3F"/>
<path d="M61.4262 53.0135H55.5529V58.8869H61.4262V53.0135Z" fill="#3C4BA0"/>
<path d="M43.8063 53.0135H37.9329V58.8869H43.8063V53.0135Z" fill="#89C5E5"/>
<path d="M55.5528 94.1266H49.6795V100H55.5528H61.4262H67.2994V94.1266H61.4262H55.5528Z" fill="#EEEBD0"/>
<path d="M43.8063 100V94.1266H37.9329H32.0597V100H37.9329H43.8063Z" fill="#EEEBD0"/>
<path d="M67.2994 94.1266V100H73.1728H79.0461V94.1266H73.1728H67.2994Z" fill="#232E35"/>
<path d="M49.6796 94.1266H43.8063V100H49.6796V94.1266Z" fill="#232E35"/>
<path d="M32.0597 100V94.1266H26.1863H20.313V100H26.1863H32.0597Z" fill="#232E35"/>
<path d="M67.2995 70.6335H61.4262V76.5068H67.2995V70.6335Z" fill="#232E35"/>
<path d="M37.933 70.6335H32.0597V76.5068H37.933V70.6335Z" fill="#232E35"/>
<path d="M61.4262 64.7601H55.5529H49.6795H43.8063H37.9329V70.6335H43.8063H49.6795H55.5529H61.4262V64.7601Z" fill="#232E35"/>
<path d="M43.8063 41.267H49.6795H55.5529H61.4262H67.2995V35.3936V29.5203V23.647V17.7737V11.9005H61.4262H55.5529H49.6795H43.8063H37.9329H32.0597V17.7737V23.647V29.5203V35.3936V41.267H37.9329H43.8063Z" fill="#232E35"/>
<path d="M55.5529 76.5067H49.6795H43.8063V70.6335H37.9329V76.5067H32.0597V82.3801H37.9329V88.2534H43.8063H49.6795H55.5529H61.4262V82.3801H67.2995V76.5067H61.4262V70.6335H55.5529V76.5067Z" fill="#FF9969"/>
<path d="M49.6796 58.8869H43.8063V64.7602H49.6796V58.8869Z" fill="#FF9969"/>
<path d="M37.9329 58.8869H32.0597V53.0135H26.1863V58.8869V64.7601H32.0597V70.6335H37.9329V64.7601V58.8869Z" fill="#FF9969"/>
<path d="M67.2995 47.1402H61.4262H55.5529H49.6795H43.8063V53.0135H49.6795V58.8869H55.5529V53.0135H61.4262V58.8869H55.5529V64.7601H61.4262V70.6335H67.2995V64.7601H73.1728V58.8869V53.0135H67.2995V47.1402Z" fill="#FF9969"/>
<path d="M37.933 47.1402H32.0597V53.0135H37.933V47.1402Z" fill="#FF9969"/>
<path d="M37.9329 47.1402H43.8063H49.6795H55.5529H61.4262H67.2995H73.1728V41.267H67.2995H61.4262H55.5529H49.6795H43.8063H37.9329H32.0597H26.1863V47.1402H32.0597H37.9329Z" fill="#191D26"/>
<path d="M49.6795 88.2534H43.8063H37.9329V94.1267H43.8063H49.6795H55.5529H61.4262V88.2534H55.5529H49.6795Z" fill="#D87E54"/>
<path d="M43.8063 70.6335V76.5067H49.6795H55.5529V70.6335H49.6795H43.8063Z" fill="#AD331C"/>
<path d="M43.8063 58.8869H37.9329V64.7602H43.8063V58.8869Z" fill="#E17A1A"/>
<path d="M49.6796 53.0135H43.8063V58.8869H49.6796V53.0135Z" fill="#E17A1A"/>
<path d="M37.933 53.0135H32.0597V58.8869H37.933V53.0135Z" fill="#E17A1A"/>
<path d="M43.8063 47.1402H37.9329V53.0135H43.8063V47.1402Z" fill="#E17A1A"/>
<path d="M84.9195 94.1266H79.0461V100H84.9195V94.1266Z" fill="#090216"/>
<path d="M20.3131 94.1266H14.4398V100H20.3131V94.1266Z" fill="#090216"/>
<path d="M73.1728 88.2534H67.2995V82.3801H61.4262V88.2534V94.1267H67.2995H73.1728H79.0461V88.2534H73.1728Z" fill="#090216"/>
<path d="M26.1863 88.2534H20.313V94.1267H26.1863H32.0597H37.9329V88.2534V82.3801H32.0597V88.2534H26.1863Z" fill="#090216"/>
<path d="M73.1728 76.5067V70.6335V64.7601H67.2994V70.6335V76.5067V82.3801H73.1728V76.5067Z" fill="#090216"/>
<path d="M26.1863 76.5067V82.3801H32.0597V76.5067V70.6335V64.7601H26.1863V70.6335V76.5067Z" fill="#090216"/>
<path d="M79.0461 58.8869V53.0135H73.1728V58.8869V64.7601H79.0461V58.8869Z" fill="#090216"/>
<path d="M20.313 58.8869V64.7601H26.1863V58.8869V53.0135H20.313V58.8869Z" fill="#090216"/>
<path d="M73.1728 47.1402H67.2994V53.0135H73.1728V47.1402Z" fill="#090216"/>
<path d="M32.0597 47.1402H26.1863V53.0135H32.0597V47.1402Z" fill="#090216"/>
<path d="M79.0461 41.267H73.1728V47.1403H79.0461V41.267Z" fill="#090216"/>
<path d="M26.1863 41.267H20.313V47.1403H26.1863V41.267Z" fill="#090216"/>
<path d="M73.1728 29.5203V23.647V17.7737V11.9005H67.2994V17.7737V23.647V29.5203V35.3936V41.267H73.1728V35.3936V29.5203Z" fill="#090216"/>
<path d="M26.1863 17.7737V23.647V29.5203V35.3936V41.267H32.0597V35.3936V29.5203V23.647V17.7737V11.9005H26.1863V17.7737Z" fill="#090216"/>
<path d="M61.4262 6.0271H55.5529H49.6795H43.8063H37.9329H32.0597V11.9004H37.9329H43.8063H49.6795H55.5529H61.4262H67.2995V6.0271H61.4262Z" fill="#090216"/>
</g>
</svg>
