<svg width="20" height="20" viewBox="0 0 20 20" fill="none" xmlns="http://www.w3.org/2000/svg">
<circle cx="10" cy="10" r="10" fill="#141619"/>
<mask id="mask0_663_1217" style="mask-type:luminance" maskUnits="userSpaceOnUse" x="0" y="0" width="20" height="20">
<circle cx="10" cy="10" r="10" fill="white"/>
</mask>
<g mask="url(#mask0_663_1217)">
<path d="M16.139 8.43777L15.9494 7.84424L15.361 8.04082L15.1844 7.48767L14.0928 7.85212L13.9549 7.42113L12.4487 7.92399L12.3593 7.64386L10.5274 8.25593L10.4953 8.15612L8.4549 8.83751L8.48074 8.91853L6.6488 9.53059L6.73825 9.81072L5.2323 10.3138L5.3702 10.7451L4.27869 11.1095L4.4556 11.6627L3.86723 11.8592L4.06302 12.4715L1.06652 13.4724L0.625 12.0908L1.21312 11.8943L1.00664 11.2484L2.09815 10.884L1.92125 10.3308L3.42745 9.82774L3.28955 9.3965L5.12149 8.78469L5.03204 8.50456L7.10126 7.81326L7.06921 7.71345L10.0657 6.71256L10.0717 6.73135L10.9701 6.43142L11.0019 6.53123L13.0711 5.83993L13.1608 6.12005L14.9928 5.50824L15.1307 5.93948L16.6366 5.43637L16.8135 5.98951L17.9051 5.62482L18.1115 6.27066L18.6996 6.07409L19.1355 7.43688L16.139 8.43777Z" fill="black"/>
<path d="M3.63597 12.2063L3.45707 11.6463L4.04519 11.4497L3.86829 10.8966L4.9598 10.5322L4.82215 10.1009L6.3281 9.59781L6.23865 9.31769L8.07059 8.70562L8.03854 8.60581L8.62839 8.40899L8.63436 8.42778L10.7036 7.73648L10.7354 7.83629L12.5676 7.22448L12.657 7.50461L14.1632 7.0015L14.3011 7.43273L15.3924 7.06829L15.5693 7.62118L16.1577 7.42486L16.3365 7.98486L16.3472 8.01838L18.7253 7.22397L18.7144 7.1907L18.4917 6.49356L17.9034 6.68988L17.6969 6.04429L16.6054 6.40873L16.4287 5.85559L14.9225 6.3587L14.7846 5.92746L12.9527 6.53953L12.8632 6.2594L10.7938 6.95045L10.762 6.85064L9.86352 7.15083L9.85755 7.13178L7.47974 7.92619L7.51154 8.026L5.44232 8.7173L5.53201 8.99743L3.69983 9.60924L3.83772 10.0405L2.33177 10.5436L2.50843 11.0967L1.41717 11.4612L1.62365 12.107L1.03528 12.3036L1.25815 13.0007L1.2748 13.0528L3.65287 12.2586L3.63597 12.2063Z" fill="#70747C"/>
<path d="M10.6869 14.6914L10.6777 14.6625L10.2325 14.8113L10.1833 14.6576L9.15788 15L9.02023 14.569L8.11233 14.8722L7.90014 14.2089L7.154 14.458L6.88193 13.6072L6.34102 13.7878L6.02323 12.7943L5.73178 12.8915L4.84799 10.1274L5.13944 10.0298L4.8219 9.03631L5.36281 8.85548L5.09074 8.00469L5.83688 7.75529L5.62494 7.09193L6.53259 6.78869L6.39494 6.3577L7.42036 6.0151L7.37116 5.86145L9.02619 5.30856L9.03563 5.33751L9.48063 5.18894L9.52983 5.34259L10.5552 4.99999L10.6929 5.43097L11.6008 5.12773L11.813 5.79135L12.5591 5.54196L12.8312 6.393L13.3721 6.21218L13.6899 7.20596L13.9813 7.10843L14.8651 9.87288L14.5737 9.97015L14.8912 10.9639L14.3503 11.1445L14.6224 11.9955L13.8762 12.2447L14.0882 12.9083L13.1805 13.2115L13.3182 13.6425L12.2928 13.9849L12.342 14.1385L10.6869 14.6914Z" fill="black"/>
<path d="M13.3837 7.62708L13.0786 6.67292L12.559 6.84638L12.2979 6.02911L11.5811 6.2686L11.3773 5.63139L10.5057 5.9227L10.3733 5.50873L9.38861 5.83762L9.3414 5.69006L8.91379 5.83305L8.90484 5.80511L7.77333 6.18301L7.82054 6.33057L6.83587 6.65971L6.96805 7.07343L6.09618 7.36473L6.29993 8.00193L5.58335 8.24117L5.84449 9.05844L5.3252 9.23216L5.63031 10.1863L5.35029 10.2798L5.67951 11.3099L5.72001 11.4363L6.04947 12.4664L6.32925 12.373L6.63436 13.3271L7.1539 13.1537L7.41504 13.971L8.13187 13.7315L8.33561 14.3687L9.20723 14.0776L9.33966 14.4913L10.3243 14.1624L10.3715 14.31L10.7991 14.1673L10.8081 14.1949L11.9396 13.817L11.8924 13.6695L12.8771 13.3406L12.7449 12.9266L13.6167 12.6353L13.413 11.9984L14.1296 11.7589L13.8684 10.9416L14.3877 10.7682L14.0829 9.814L14.3626 9.72028L14.0334 8.69044L13.9929 8.56371L13.6635 7.53362L13.3837 7.62708Z" fill="#FF5D00"/>
<path d="M9.93425 13.5646L9.92829 13.5458L9.02983 13.8457L8.99803 13.7459L6.92856 14.4369L6.83911 14.1568L5.00717 14.7689L4.86927 14.3376L3.36307 14.8408L3.18641 14.2876L2.0949 14.6521L1.88843 14.0065L1.30006 14.2028L0.864502 12.84L3.861 11.8391L4.05058 12.4326L4.63895 12.2363L4.81561 12.7894L5.90712 12.4248L6.04501 12.856L7.55121 12.3529L7.64066 12.633L9.4726 12.0212L9.50465 12.121L11.5451 11.4394L11.5192 11.3583L13.3512 10.7465L13.2617 10.4664L14.7677 9.96329L14.6298 9.53205L15.7213 9.16735L15.5444 8.61447L16.1327 8.41789L15.9369 7.80558L18.9332 6.80469L19.375 8.18627L18.7868 8.38259L18.9933 9.02843L17.9018 9.39313L18.0787 9.94627L16.5725 10.4494L16.7104 10.8804L14.8785 11.4924L14.9679 11.7726L12.8987 12.4636L12.9305 12.5637L9.93425 13.5646Z" fill="black"/>
<path d="M1.50822 13.7835L2.09658 13.5869L2.30306 14.2328L3.39457 13.8683L3.57123 14.4212L5.07743 13.9183L5.21533 14.3493L7.04727 13.7375L7.13671 14.0176L9.20618 13.3263L9.23799 13.4264L10.1362 13.1262L10.1424 13.145L12.5202 12.3509L12.4884 12.251L14.5576 11.5597L14.4679 11.2796L16.3001 10.6676L16.1622 10.2366L17.6682 9.73346L17.4913 9.18032L18.5828 8.81562L18.3763 8.17003L18.9647 7.97346L18.7418 7.27632L18.7252 7.224L16.3471 8.01841L16.3637 8.07073L16.5429 8.63073L15.9548 8.8273L16.1314 9.38019L15.0402 9.74489L15.1778 10.1761L13.6719 10.6792L13.7613 10.9594L11.9294 11.5712L11.9614 11.671L11.3716 11.8681L11.3656 11.8493L9.29638 12.5403L9.26433 12.4405L7.43239 13.0526L7.34294 12.7724L5.83674 13.2753L5.69884 12.8443L4.60758 13.2088L4.43067 12.6556L3.8423 12.8522L3.66341 12.2922L3.65272 12.2587L1.27466 13.0528L1.28534 13.0863L1.50822 13.7835Z" fill="#8B9099"/>
<path d="M6.52124 8.26053L7.21222 8.02966L7.43807 8.736L6.74709 8.96687L6.52124 8.26053Z" fill="black"/>
<path d="M11.8488 9.80011L12.5397 9.56924L12.7656 10.2756L12.0746 10.5064L11.8488 9.80011Z" fill="black"/>
<path d="M6.58716 10.8583L7.27814 10.6275L7.50399 11.3338L6.81301 11.5647L6.58716 10.8583Z" fill="black"/>
<path d="M10.3813 6.4064L11.0723 6.17554L11.2982 6.88187L10.6072 7.11274L10.3813 6.4064Z" fill="black"/>
<path d="M11.4336 7.01022L12.1246 6.77936L12.3504 7.4857L11.6594 7.71656L11.4336 7.01022Z" fill="black"/>
<path d="M12.3969 7.6311L13.0878 7.40024L13.3137 8.10658L12.6227 8.33744L12.3969 7.6311Z" fill="black"/>
<path d="M11.6565 10.6462L12.0747 10.5065L12.2114 10.934L11.7932 11.0737L11.6565 10.6462Z" fill="black"/>
<path d="M7.36499 8.76053L9.13259 8.16995L9.35844 8.87629L7.59084 9.46687L7.36499 8.76053Z" fill="black"/>
</g>
</svg>
