<svg width="350" height="182" viewBox="0 0 350 182" fill="none" xmlns="http://www.w3.org/2000/svg">
<rect x="346" y="8" width="4" height="166" fill="black"/>
<rect y="8" width="4" height="166" fill="black"/>
<rect x="7" width="335" height="4" fill="black"/>
<rect x="7" y="178" width="335" height="4" fill="black"/>
<rect x="342" y="4" width="4" height="4" fill="black"/>
<rect x="4" y="4" width="4" height="4" fill="black"/>
<rect x="4" y="174" width="4" height="4" fill="black"/>
<rect x="4" y="8" width="342" height="166" fill="#EAEBEE"/>
<rect x="8" y="174" width="334" height="4" fill="#141619"/>
<rect x="342" y="170" width="4" height="4" fill="#141619"/>
<rect x="4" y="170" width="4" height="4" fill="#141619"/>
<rect x="8" y="170" width="334" height="4" fill="#777777"/>
<rect x="342" y="166" width="4" height="4" fill="#777777"/>
<rect x="4" y="166" width="4" height="4" fill="#777777"/>
<rect x="342" y="174" width="4" height="4" fill="black"/>
<rect x="8" y="4" width="334" height="4" fill="white"/>
<rect x="4" y="8" width="342" height="23" fill="#00CC9B"/>
<rect x="8" y="4" width="334" height="4" fill="#00B98D"/>
<rect x="4" y="8" width="4" height="4" fill="#00B98D"/>
<rect x="342" y="8" width="4" height="4" fill="#00B98D"/>
<rect x="4" y="31" width="342" height="4" fill="#D9D9D9"/>
<circle cx="19" cy="18" r="3" fill="#FF7072"/>
<circle cx="29" cy="18" r="3" fill="#FFCB7D"/>
<circle cx="39" cy="18" r="3" fill="#56FF3F"/>
<line x1="114.5" y1="49" x2="114.5" y2="149" stroke="#777777" stroke-dasharray="2 2"/>
</svg>
