<svg width="330" height="36" viewBox="0 0 330 36" fill="none" xmlns="http://www.w3.org/2000/svg">
<g clip-path="url(#clip0_663_1267)">
<rect width="36" height="36" fill="white"/>
<path d="M17.043 17.1025H13.1182V28H8V8L17.043 17.1025ZM28 8V28L18.958 18.8975H22.8818V8H28Z" fill="black"/>
<path d="M56.29 24.18C54.97 24.18 53.836 23.916 52.888 23.388C51.952 22.848 51.232 22.092 50.728 21.12C50.224 20.136 49.972 18.978 49.972 17.646C49.972 16.314 50.224 15.162 50.728 14.19C51.232 13.218 51.952 12.468 52.888 11.94C53.836 11.4 54.97 11.13 56.29 11.13C57.142 11.13 57.946 11.262 58.702 11.526C59.47 11.79 60.1 12.168 60.592 12.66L59.836 14.496C59.296 14.04 58.744 13.71 58.18 13.506C57.616 13.29 57.01 13.182 56.362 13.182C55.078 13.182 54.1 13.572 53.428 14.352C52.756 15.12 52.42 16.218 52.42 17.646C52.42 19.074 52.756 20.178 53.428 20.958C54.1 21.738 55.078 22.128 56.362 22.128C57.01 22.128 57.616 22.026 58.18 21.822C58.744 21.606 59.296 21.27 59.836 20.814L60.592 22.65C60.1 23.13 59.47 23.508 58.702 23.784C57.946 24.048 57.142 24.18 56.29 24.18ZM62.6028 24V11.31H64.9068V16.926H64.9428L70.5408 11.31H73.3488L66.6528 17.934L66.6708 16.89L73.6548 24H70.8108L64.9428 18.132H64.9068V24H62.6028ZM74.5559 24V11.31H80.0999C81.4319 11.31 82.4639 11.604 83.1959 12.192C83.9279 12.768 84.2939 13.572 84.2939 14.604C84.2939 15.372 84.0719 16.02 83.6279 16.548C83.1839 17.076 82.5779 17.43 81.8099 17.61V17.34C82.3979 17.424 82.9019 17.604 83.3219 17.88C83.7419 18.156 84.0599 18.51 84.2759 18.942C84.5039 19.374 84.6179 19.878 84.6179 20.454C84.6179 21.198 84.4439 21.84 84.0959 22.38C83.7599 22.908 83.2679 23.31 82.6199 23.586C81.9719 23.862 81.1979 24 80.2979 24H74.5559ZM76.7699 22.254H80.0099C80.3339 22.254 80.6219 22.23 80.8739 22.182C81.1379 22.134 81.3599 22.062 81.5399 21.966C81.7319 21.858 81.8879 21.726 82.0079 21.57C82.1399 21.414 82.2359 21.234 82.2959 21.03C82.3559 20.826 82.3859 20.598 82.3859 20.346C82.3859 20.082 82.3559 19.848 82.2959 19.644C82.2359 19.44 82.1399 19.266 82.0079 19.122C81.8879 18.966 81.7319 18.84 81.5399 18.744C81.3599 18.636 81.1379 18.558 80.8739 18.51C80.6219 18.462 80.3339 18.438 80.0099 18.438H76.7699V22.254ZM76.7699 16.692H79.7039C80.4959 16.692 81.0839 16.542 81.4679 16.242C81.8639 15.93 82.0619 15.474 82.0619 14.874C82.0619 14.274 81.8639 13.824 81.4679 13.524C81.0839 13.212 80.4959 13.056 79.7039 13.056H76.7699V16.692ZM97.7041 24.18C96.3841 24.18 95.2501 23.916 94.3021 23.388C93.3661 22.848 92.6461 22.092 92.1421 21.12C91.6381 20.136 91.3861 18.978 91.3861 17.646C91.3861 16.314 91.6381 15.162 92.1421 14.19C92.6461 13.218 93.3661 12.468 94.3021 11.94C95.2501 11.4 96.3841 11.13 97.7041 11.13C98.5561 11.13 99.3601 11.262 100.116 11.526C100.884 11.79 101.514 12.168 102.006 12.66L101.25 14.496C100.71 14.04 100.158 13.71 99.5941 13.506C99.0301 13.29 98.4241 13.182 97.7761 13.182C96.4921 13.182 95.5141 13.572 94.8421 14.352C94.1701 15.12 93.8341 16.218 93.8341 17.646C93.8341 19.074 94.1701 20.178 94.8421 20.958C95.5141 21.738 96.4921 22.128 97.7761 22.128C98.4241 22.128 99.0301 22.026 99.5941 21.822C100.158 21.606 100.71 21.27 101.25 20.814L102.006 22.65C101.514 23.13 100.884 23.508 100.116 23.784C99.3601 24.048 98.5561 24.18 97.7041 24.18ZM107.182 24.18C106.27 24.18 105.478 23.994 104.806 23.622C104.134 23.25 103.612 22.722 103.24 22.038C102.868 21.342 102.682 20.526 102.682 19.59C102.682 18.654 102.868 17.844 103.24 17.16C103.612 16.476 104.134 15.948 104.806 15.576C105.478 15.204 106.27 15.018 107.182 15.018C108.094 15.018 108.886 15.204 109.558 15.576C110.23 15.948 110.752 16.476 111.124 17.16C111.496 17.844 111.682 18.654 111.682 19.59C111.682 20.526 111.496 21.342 111.124 22.038C110.752 22.722 110.23 23.25 109.558 23.622C108.886 23.994 108.094 24.18 107.182 24.18ZM107.182 22.47C107.854 22.47 108.394 22.23 108.802 21.75C109.21 21.258 109.414 20.538 109.414 19.59C109.414 18.63 109.21 17.916 108.802 17.448C108.394 16.968 107.854 16.728 107.182 16.728C106.51 16.728 105.97 16.968 105.562 17.448C105.154 17.916 104.95 18.63 104.95 19.59C104.95 20.538 105.154 21.258 105.562 21.75C105.97 22.23 106.51 22.47 107.182 22.47ZM113.575 24V15.198H115.771V16.962H115.573C115.729 16.554 115.945 16.206 116.221 15.918C116.497 15.63 116.827 15.408 117.211 15.252C117.595 15.096 118.021 15.018 118.489 15.018C119.197 15.018 119.779 15.186 120.235 15.522C120.691 15.858 121.009 16.374 121.189 17.07H120.937C121.177 16.434 121.573 15.936 122.125 15.576C122.677 15.204 123.313 15.018 124.033 15.018C124.705 15.018 125.257 15.15 125.689 15.414C126.133 15.678 126.463 16.08 126.679 16.62C126.895 17.148 127.003 17.82 127.003 18.636V24H124.753V18.726C124.753 18.054 124.639 17.562 124.411 17.25C124.195 16.938 123.823 16.782 123.295 16.782C122.911 16.782 122.575 16.878 122.287 17.07C121.999 17.25 121.777 17.514 121.621 17.862C121.477 18.21 121.405 18.63 121.405 19.122V24H119.155V18.726C119.155 18.054 119.041 17.562 118.813 17.25C118.597 16.938 118.231 16.782 117.715 16.782C117.319 16.782 116.977 16.878 116.689 17.07C116.413 17.25 116.197 17.514 116.041 17.862C115.897 18.21 115.825 18.63 115.825 19.122V24H113.575ZM129.36 24V15.198H131.556V16.962H131.358C131.514 16.554 131.73 16.206 132.006 15.918C132.282 15.63 132.612 15.408 132.996 15.252C133.38 15.096 133.806 15.018 134.274 15.018C134.982 15.018 135.564 15.186 136.02 15.522C136.476 15.858 136.794 16.374 136.974 17.07H136.722C136.962 16.434 137.358 15.936 137.91 15.576C138.462 15.204 139.098 15.018 139.818 15.018C140.49 15.018 141.042 15.15 141.474 15.414C141.918 15.678 142.248 16.08 142.464 16.62C142.68 17.148 142.788 17.82 142.788 18.636V24H140.538V18.726C140.538 18.054 140.424 17.562 140.196 17.25C139.98 16.938 139.608 16.782 139.08 16.782C138.696 16.782 138.36 16.878 138.072 17.07C137.784 17.25 137.562 17.514 137.406 17.862C137.262 18.21 137.19 18.63 137.19 19.122V24H134.94V18.726C134.94 18.054 134.826 17.562 134.598 17.25C134.382 16.938 134.016 16.782 133.5 16.782C133.104 16.782 132.762 16.878 132.474 17.07C132.198 17.25 131.982 17.514 131.826 17.862C131.682 18.21 131.61 18.63 131.61 19.122V24H129.36ZM148.295 24.18C147.563 24.18 146.957 24.048 146.477 23.784C145.997 23.508 145.637 23.1 145.397 22.56C145.169 22.02 145.055 21.348 145.055 20.544V15.198H147.305V20.58C147.305 20.988 147.359 21.33 147.467 21.606C147.587 21.882 147.761 22.086 147.989 22.218C148.229 22.35 148.529 22.416 148.889 22.416C149.297 22.416 149.651 22.326 149.951 22.146C150.263 21.954 150.503 21.69 150.671 21.354C150.851 21.006 150.941 20.604 150.941 20.148V15.198H153.191V24H150.995V22.164H151.247C150.995 22.812 150.611 23.31 150.095 23.658C149.591 24.006 148.991 24.18 148.295 24.18ZM155.533 24V15.198H157.729V16.962H157.531C157.795 16.326 158.203 15.846 158.755 15.522C159.319 15.186 159.955 15.018 160.663 15.018C161.371 15.018 161.953 15.15 162.409 15.414C162.865 15.678 163.207 16.08 163.435 16.62C163.663 17.148 163.777 17.82 163.777 18.636V24H161.527V18.744C161.527 18.288 161.467 17.916 161.347 17.628C161.239 17.34 161.065 17.13 160.825 16.998C160.597 16.854 160.303 16.782 159.943 16.782C159.511 16.782 159.133 16.878 158.809 17.07C158.485 17.25 158.233 17.514 158.053 17.862C157.873 18.198 157.783 18.594 157.783 19.05V24H155.533ZM165.919 13.308V11.112H168.439V13.308H165.919ZM166.063 24V15.198H168.313V24H166.063ZM174.682 24.18C173.506 24.18 172.63 23.886 172.054 23.298C171.478 22.71 171.19 21.852 171.19 20.724V16.89H169.498V15.198H171.19V12.57H173.44V15.198H176.104V16.89H173.44V20.598C173.44 21.174 173.566 21.606 173.818 21.894C174.07 22.182 174.478 22.326 175.042 22.326C175.21 22.326 175.384 22.308 175.564 22.272C175.744 22.224 175.93 22.176 176.122 22.128L176.464 23.784C176.248 23.904 175.972 24 175.636 24.072C175.312 24.144 174.994 24.18 174.682 24.18ZM178.491 27.24L180.327 23.19V24.126L176.457 15.198H178.851L181.587 22.02H181.047L183.837 15.198H186.105L180.813 27.24H178.491ZM192.241 24V11.31H200.539V13.146H194.545V16.728H200.161V18.564H194.545V24H192.241ZM205.09 24.18C204.358 24.18 203.752 24.048 203.272 23.784C202.792 23.508 202.432 23.1 202.192 22.56C201.964 22.02 201.85 21.348 201.85 20.544V15.198H204.1V20.58C204.1 20.988 204.154 21.33 204.262 21.606C204.382 21.882 204.556 22.086 204.784 22.218C205.024 22.35 205.324 22.416 205.684 22.416C206.092 22.416 206.446 22.326 206.746 22.146C207.058 21.954 207.298 21.69 207.466 21.354C207.646 21.006 207.736 20.604 207.736 20.148V15.198H209.986V24H207.79V22.164H208.042C207.79 22.812 207.406 23.31 206.89 23.658C206.386 24.006 205.786 24.18 205.09 24.18ZM212.328 24V15.198H214.524V16.962H214.326C214.59 16.326 214.998 15.846 215.55 15.522C216.114 15.186 216.75 15.018 217.458 15.018C218.166 15.018 218.748 15.15 219.204 15.414C219.66 15.678 220.002 16.08 220.23 16.62C220.458 17.148 220.572 17.82 220.572 18.636V24H218.322V18.744C218.322 18.288 218.262 17.916 218.142 17.628C218.034 17.34 217.86 17.13 217.62 16.998C217.392 16.854 217.098 16.782 216.738 16.782C216.306 16.782 215.928 16.878 215.604 17.07C215.28 17.25 215.028 17.514 214.848 17.862C214.668 18.198 214.578 18.594 214.578 19.05V24H212.328ZM226.242 24.18C225.474 24.18 224.796 23.994 224.208 23.622C223.632 23.25 223.182 22.722 222.858 22.038C222.534 21.342 222.372 20.526 222.372 19.59C222.372 18.642 222.534 17.832 222.858 17.16C223.182 16.476 223.632 15.948 224.208 15.576C224.796 15.204 225.474 15.018 226.242 15.018C226.974 15.018 227.61 15.198 228.15 15.558C228.702 15.918 229.074 16.392 229.266 16.98H229.068V11.31H231.318V24H229.122V22.128H229.284C229.104 22.752 228.738 23.25 228.186 23.622C227.634 23.994 226.986 24.18 226.242 24.18ZM226.872 22.47C227.544 22.47 228.084 22.23 228.492 21.75C228.9 21.258 229.104 20.538 229.104 19.59C229.104 18.63 228.9 17.916 228.492 17.448C228.084 16.968 227.544 16.728 226.872 16.728C226.2 16.728 225.66 16.968 225.252 17.448C224.844 17.916 224.64 18.63 224.64 19.59C224.64 20.538 224.844 21.258 225.252 21.75C225.66 22.23 226.2 22.47 226.872 22.47ZM238.718 24V11.31H243.434C244.85 11.31 246.05 11.556 247.034 12.048C248.03 12.54 248.786 13.26 249.302 14.208C249.83 15.144 250.094 16.29 250.094 17.646C250.094 19.002 249.83 20.154 249.302 21.102C248.786 22.05 248.03 22.77 247.034 23.262C246.05 23.754 244.85 24 243.434 24H238.718ZM241.022 22.092H243.29C244.766 22.092 245.864 21.726 246.584 20.994C247.316 20.25 247.682 19.134 247.682 17.646C247.682 16.158 247.316 15.048 246.584 14.316C245.852 13.584 244.754 13.218 243.29 13.218H241.022V22.092ZM250.797 24L256.539 11.31H258.429L264.171 24H261.831L260.301 20.436L261.273 21.066H253.677L254.649 20.436L253.137 24H250.797ZM257.457 13.812L254.937 19.806L254.469 19.23H260.481L260.031 19.806L257.493 13.812H257.457ZM270.984 24.18C270.06 24.18 269.22 24.03 268.464 23.73C267.72 23.418 267.078 22.974 266.538 22.398C266.01 21.822 265.602 21.132 265.314 20.328C265.026 19.524 264.882 18.63 264.882 17.646C264.882 16.65 265.026 15.756 265.314 14.964C265.602 14.16 266.01 13.476 266.538 12.912C267.078 12.336 267.72 11.898 268.464 11.598C269.22 11.286 270.06 11.13 270.984 11.13C271.908 11.13 272.742 11.286 273.486 11.598C274.242 11.898 274.884 12.33 275.412 12.894C275.952 13.458 276.366 14.142 276.654 14.946C276.942 15.738 277.086 16.632 277.086 17.628C277.086 18.624 276.942 19.524 276.654 20.328C276.366 21.132 275.952 21.822 275.412 22.398C274.884 22.974 274.242 23.418 273.486 23.73C272.742 24.03 271.908 24.18 270.984 24.18ZM270.984 22.2C271.764 22.2 272.424 22.02 272.964 21.66C273.516 21.3 273.936 20.778 274.224 20.094C274.524 19.41 274.674 18.594 274.674 17.646C274.674 16.686 274.53 15.87 274.242 15.198C273.954 14.514 273.534 13.998 272.982 13.65C272.43 13.29 271.764 13.11 270.984 13.11C270.216 13.11 269.556 13.29 269.004 13.65C268.452 13.998 268.026 14.514 267.726 15.198C267.438 15.87 267.294 16.686 267.294 17.646C267.294 18.594 267.438 19.41 267.726 20.094C268.026 20.778 268.452 21.3 269.004 21.66C269.556 22.02 270.216 22.2 270.984 22.2Z" fill="white"/>
<g clip-path="url(#clip1_663_1267)">
<rect x="295" y="9" width="35" height="18" fill="#00CC9B"/>
<rect x="295" y="9" width="2" height="2" fill="#00644C"/>
<rect x="328" y="9" width="2" height="2" fill="#00644C"/>
<rect x="295" y="25" width="2" height="2" fill="#00644C"/>
<rect x="328" y="25" width="2" height="2" fill="#00644C"/>
<rect x="328" y="11" width="2" height="14" fill="#009370"/>
<rect x="297" y="25" width="31" height="2" fill="#00B287"/>
<path d="M303.5 22V20.5H302V17.5H300.5V14.5H302V17.5H303.5V20.5H305V22H303.5ZM306.5 17.5V14.5H308V17.5H306.5ZM305 20.5V17.5H306.5V20.5H305ZM310 22V20.5H311.5V16H310V14.5H313V20.5H314.5V22H310ZM316.5 22V20.5H318V22H316.5ZM320 22V20.5H321.5V16H320V14.5H323V20.5H324.5V22H320Z" fill="#1C2027"/>
</g>
</g>
<defs>
<clipPath id="clip0_663_1267">
<rect width="330" height="36" fill="white"/>
</clipPath>
<clipPath id="clip1_663_1267">
<rect width="35" height="18" fill="white" transform="translate(295 9)"/>
</clipPath>
</defs>
</svg>
