<svg width="14" height="14" viewBox="0 0 14 14" fill="none" xmlns="http://www.w3.org/2000/svg">
<path d="M0.482788 0.509094H0.965547V1.01819H1.44831V1.52728H1.93106V2.03637H2.41382V2.54546H2.89658V3.05455H3.37934V3.56364H3.8621V4.07273H4.34486V4.58182H4.82762V5.09091H5.31037V5.6H5.79313V6.10909H6.27589V6.61819H3.62072V13.3636H0.482788V0.509094Z" fill="#00CC9B"/>
<path d="M0.482788 0.509091V0H0.965547V0.509091H0.482788Z" fill="#1E2229"/>
<path d="M0.965576 1.01819V0.509094H1.44833V1.01819H0.965576Z" fill="#1E2229"/>
<path d="M1.44836 1.52728V1.01819H1.93112V1.52728H1.44836Z" fill="#1E2229"/>
<path d="M1.93103 2.03637V1.52728H2.41379V2.03637H1.93103Z" fill="#1E2229"/>
<path d="M2.41382 2.54547V2.03638H2.89658V2.54547H2.41382Z" fill="#1E2229"/>
<path d="M2.89661 3.05456V2.54547H3.37937V3.05456H2.89661Z" fill="#1E2229"/>
<path d="M3.37939 3.56366V3.05457H3.86215V3.56366H3.37939Z" fill="#1E2229"/>
<path d="M3.86206 4.07275V3.56366H4.34482V4.07275H3.86206Z" fill="#1E2229"/>
<path d="M4.34485 4.58184V4.07275H4.82761V4.58184H4.34485Z" fill="#1E2229"/>
<path d="M4.82764 5.09094V4.58185H5.3104V5.09094H4.82764Z" fill="#1E2229"/>
<path d="M5.31042 5.59997V5.09088H5.79318V5.59997H5.31042Z" fill="#1E2229"/>
<path d="M5.79309 6.10907V5.59998H6.27585V6.10907H5.79309Z" fill="#1E2229"/>
<path d="M6.27588 6.61816V6.10907H6.75864V6.61816H6.27588Z" fill="#1E2229"/>
<path d="M0.482788 1.01819V0.509094H0.965547V1.01819H0.482788Z" fill="#009A75"/>
<path d="M0.965576 1.52728V1.01819H1.44833V1.52728H0.965576Z" fill="#009A75"/>
<path d="M1.44836 2.03637V1.52728H1.93112V2.03637H1.44836Z" fill="#009A75"/>
<path d="M1.93103 2.54547V2.03638H2.41379V2.54547H1.93103Z" fill="#009A75"/>
<path d="M2.41382 3.05456V2.54547H2.89658V3.05456H2.41382Z" fill="#009A75"/>
<path d="M2.89661 3.56366V3.05457H3.37937V3.56366H2.89661Z" fill="#009A75"/>
<path d="M3.37939 4.07275V3.56366H3.86215V4.07275H3.37939Z" fill="#009A75"/>
<path d="M3.86206 4.58184V4.07275H4.34482V4.58184H3.86206Z" fill="#009A75"/>
<path d="M4.34485 5.09094V4.58185H4.82761V5.09094H4.34485Z" fill="#009A75"/>
<path d="M4.82764 5.60003V5.09094H5.3104V5.60003H4.82764Z" fill="#009A75"/>
<path d="M5.31042 6.10907V5.59998H5.79318V6.10907H5.31042Z" fill="#009A75"/>
<path d="M5.79309 6.61816V6.10907H6.27585V6.61816H5.79309Z" fill="#009A75"/>
<path d="M6.27588 7.12725V6.61816H6.75864V7.12725H6.27588Z" fill="#009A75"/>
<path d="M4.10339 7.12725V6.61816H6.27581V7.12725H4.10339Z" fill="#1E2229"/>
<path d="M0.482788 14V13.4909H3.62072V14H0.482788Z" fill="#1E2229"/>
<path d="M0 13.4909V0.509094H0.482759V13.4909H0Z" fill="#1E2229"/>
<path d="M3.62073 13.4909V7.12726H4.10349V13.4909H3.62073Z" fill="#1E2229"/>
<path d="M0 0.509091V0H0.482759V0.509091H0Z" fill="#2B313B"/>
<path d="M0 14V13.4909H0.482759V14H0Z" fill="#2B313B"/>
<path d="M3.62073 14V13.4909H4.10349V14H3.62073Z" fill="#2B313B"/>
<path d="M6.27588 7.12725V6.61816H6.75864V7.12725H6.27588Z" fill="#2B313B"/>
<path d="M3.62073 7.12725V6.61816H4.10349V7.12725H3.62073Z" fill="#00926E"/>
<path d="M0.482788 13.491V12.9819H3.62072V13.491H0.482788Z" fill="#00A980"/>
<path d="M0.482788 13.1091V12.6H3.62072V13.1091H0.482788Z" fill="#00A980" fill-opacity="0.5"/>
<path d="M0.482788 12.6V12.0909H3.62072V12.6H0.482788Z" fill="#00A980" fill-opacity="0.2"/>
<path d="M0.482788 12.0909V11.5818H3.62072V12.0909H0.482788Z" fill="#00A980" fill-opacity="0.1"/>
<path d="M13.5172 13.4909H13.0345V12.9818H12.5517V12.4727H12.0689V11.9636H11.5862V11.4545H11.1034V10.9455H10.6207V10.4364H10.1379V9.92727H9.65514V9.41818H9.17238V8.90909H8.68963V8.4H8.20687V7.89091H7.72411V7.38181L10.3793 7.38181L10.3793 0.63636H13.5172L13.5172 13.4909Z" fill="#00CC9B"/>
<path d="M13.5172 13.4909V14H13.0345V13.4909H13.5172Z" fill="#1E2229"/>
<path d="M13.0344 12.9818V13.4909H12.5517V12.9818H13.0344Z" fill="#1E2229"/>
<path d="M12.5516 12.4727V12.9818H12.0689V12.4727H12.5516Z" fill="#1E2229"/>
<path d="M12.069 11.9636V12.4727H11.5862V11.9636H12.069Z" fill="#1E2229"/>
<path d="M11.5862 11.4545V11.9636H11.1034V11.4545H11.5862Z" fill="#1E2229"/>
<path d="M11.1034 10.9454V11.4545H10.6206V10.9454H11.1034Z" fill="#1E2229"/>
<path d="M10.6206 10.4363V10.9454H10.1378V10.4363H10.6206Z" fill="#1E2229"/>
<path d="M10.1379 9.92725V10.4363H9.65518V9.92725H10.1379Z" fill="#1E2229"/>
<path d="M9.65515 9.41816V9.92725H9.17239V9.41816H9.65515Z" fill="#1E2229"/>
<path d="M9.17236 8.90906V9.41815H8.6896V8.90906H9.17236Z" fill="#1E2229"/>
<path d="M8.68958 8.40003V8.90912H8.20682V8.40003H8.68958Z" fill="#1E2229"/>
<path d="M8.20691 7.89093V8.40002H7.72415V7.89093H8.20691Z" fill="#1E2229"/>
<path d="M7.72412 7.38184V7.89093H7.24136V7.38184H7.72412Z" fill="#1E2229"/>
<path d="M13.5172 12.9818V13.4909H13.0345V12.9818H13.5172Z" fill="#009A75"/>
<path d="M13.0344 12.4727V12.9818H12.5517V12.4727H13.0344Z" fill="#009A75"/>
<path d="M12.5516 11.9636V12.4727H12.0689V11.9636H12.5516Z" fill="#009A75"/>
<path d="M12.069 11.4545V11.9636H11.5862V11.4545H12.069Z" fill="#009A75"/>
<path d="M11.5862 10.9454V11.4545H11.1034V10.9454H11.5862Z" fill="#009A75"/>
<path d="M11.1034 10.4363V10.9454H10.6206V10.4363H11.1034Z" fill="#009A75"/>
<path d="M10.6206 9.92725V10.4363H10.1378V9.92725H10.6206Z" fill="#009A75"/>
<path d="M10.1379 9.41816V9.92725H9.65518V9.41816H10.1379Z" fill="#009A75"/>
<path d="M9.65515 8.90906V9.41815H9.17239V8.90906H9.65515Z" fill="#009A75"/>
<path d="M9.17236 8.39997V8.90906H8.6896V8.39997H9.17236Z" fill="#009A75"/>
<path d="M8.68958 7.89093V8.40002H8.20682V7.89093H8.68958Z" fill="#009A75"/>
<path d="M8.20691 7.38184V7.89093H7.72415V7.38184H8.20691Z" fill="#009A75"/>
<path d="M7.72412 6.87275V7.38184H7.24136V6.87275H7.72412Z" fill="#009A75"/>
<path d="M9.89661 6.87275V7.38184H7.72419V6.87275H9.89661Z" fill="#1E2229"/>
<path d="M13.5172 3.33786e-06V0.509094L10.3793 0.509094V3.33786e-06L13.5172 3.33786e-06Z" fill="#1E2229"/>
<path d="M14 0.509088L14 13.4909H13.5172L13.5172 0.509088H14Z" fill="#1E2229"/>
<path d="M10.3793 0.509105V6.87274H9.89651V0.509105H10.3793Z" fill="#1E2229"/>
<path d="M14 13.4909V14H13.5172V13.4909H14Z" fill="#2B313B"/>
<path d="M14 3.33786e-06V0.509094L13.5172 0.509094V3.33786e-06L14 3.33786e-06Z" fill="#2B313B"/>
<path d="M10.3793 3.33786e-06V0.509094L9.89651 0.509094V3.33786e-06L10.3793 3.33786e-06Z" fill="#2B313B"/>
<path d="M7.72412 6.87275V7.38184H7.24136V6.87275H7.72412Z" fill="#2B313B"/>
<path d="M10.3793 6.87275V7.38184H9.89651V6.87275H10.3793Z" fill="#00926E"/>
<path d="M13.5172 0.509037V1.01813L10.3793 1.01813V0.509037L13.5172 0.509037Z" fill="#00A980"/>
<path d="M13.5172 0.890872V1.39996L10.3793 1.39996V0.890872L13.5172 0.890872Z" fill="#00A980" fill-opacity="0.5"/>
<path d="M13.5172 1.39997V1.90906L10.3793 1.90906V1.39997L13.5172 1.39997Z" fill="#00A980" fill-opacity="0.2"/>
<path d="M13.5172 1.90906V2.41815L10.3793 2.41815V1.90906L13.5172 1.90906Z" fill="#00A980" fill-opacity="0.1"/>
</svg>
