<svg width="151" height="32" viewBox="0 0 151 32" fill="none" xmlns="http://www.w3.org/2000/svg">
<g clip-path="url(#clip0_1031_7305)">
<rect width="32" height="32" fill="white"/>
<path d="M15.1387 15.1924H11.6064V25H7V7L15.1387 15.1924ZM25 7V25L16.8623 16.8086H20.3936V7H25Z" fill="black"/>
<path d="M45.67 13.14C44.6433 13.14 43.7613 12.9347 43.024 12.524C42.296 12.104 41.736 11.516 41.344 10.76C40.952 9.99467 40.756 9.094 40.756 8.058C40.756 7.022 40.952 6.126 41.344 5.37C41.736 4.614 42.296 4.03067 43.024 3.62C43.7613 3.2 44.6433 2.99 45.67 2.99C46.3327 2.99 46.958 3.09267 47.546 3.298C48.1433 3.50333 48.6333 3.79733 49.016 4.18L48.428 5.608C48.008 5.25333 47.5787 4.99667 47.14 4.838C46.7013 4.67 46.23 4.586 45.726 4.586C44.7273 4.586 43.9667 4.88933 43.444 5.496C42.9213 6.09333 42.66 6.94733 42.66 8.058C42.66 9.16867 42.9213 10.0273 43.444 10.634C43.9667 11.2407 44.7273 11.544 45.726 11.544C46.23 11.544 46.7013 11.4647 47.14 11.306C47.5787 11.138 48.008 10.8767 48.428 10.522L49.016 11.95C48.6333 12.3233 48.1433 12.6173 47.546 12.832C46.958 13.0373 46.3327 13.14 45.67 13.14ZM50.58 13V3.13H52.372V7.498H52.4L56.754 3.13H58.938L53.73 8.282L53.744 7.47L59.176 13H56.964L52.4 8.436H52.372V13H50.58ZM59.8768 13V3.13H64.1888C65.2248 3.13 66.0275 3.35867 66.5968 3.816C67.1662 4.264 67.4508 4.88933 67.4508 5.692C67.4508 6.28933 67.2782 6.79333 66.9328 7.204C66.5875 7.61467 66.1162 7.89 65.5188 8.03V7.82C65.9762 7.88533 66.3682 8.02533 66.6948 8.24C67.0215 8.45467 67.2688 8.73 67.4368 9.066C67.6142 9.402 67.7028 9.794 67.7028 10.242C67.7028 10.8207 67.5675 11.32 67.2968 11.74C67.0355 12.1507 66.6528 12.4633 66.1488 12.678C65.6448 12.8927 65.0428 13 64.3428 13H59.8768ZM61.5988 11.642H64.1188C64.3708 11.642 64.5948 11.6233 64.7908 11.586C64.9962 11.5487 65.1688 11.4927 65.3088 11.418C65.4582 11.334 65.5795 11.2313 65.6728 11.11C65.7755 10.9887 65.8502 10.8487 65.8968 10.69C65.9435 10.5313 65.9668 10.354 65.9668 10.158C65.9668 9.95267 65.9435 9.77067 65.8968 9.612C65.8502 9.45333 65.7755 9.318 65.6728 9.206C65.5795 9.08467 65.4582 8.98667 65.3088 8.912C65.1688 8.828 64.9962 8.76733 64.7908 8.73C64.5948 8.69267 64.3708 8.674 64.1188 8.674H61.5988V11.642ZM61.5988 7.316H63.8808C64.4968 7.316 64.9542 7.19933 65.2528 6.966C65.5608 6.72333 65.7148 6.36867 65.7148 5.902C65.7148 5.43533 65.5608 5.08533 65.2528 4.852C64.9542 4.60933 64.4968 4.488 63.8808 4.488H61.5988V7.316ZM77.8809 13.14C76.8543 13.14 75.9723 12.9347 75.2349 12.524C74.5069 12.104 73.9469 11.516 73.5549 10.76C73.1629 9.99467 72.9669 9.094 72.9669 8.058C72.9669 7.022 73.1629 6.126 73.5549 5.37C73.9469 4.614 74.5069 4.03067 75.2349 3.62C75.9723 3.2 76.8543 2.99 77.8809 2.99C78.5436 2.99 79.1689 3.09267 79.7569 3.298C80.3543 3.50333 80.8443 3.79733 81.2269 4.18L80.6389 5.608C80.2189 5.25333 79.7896 4.99667 79.3509 4.838C78.9123 4.67 78.4409 4.586 77.9369 4.586C76.9383 4.586 76.1776 4.88933 75.6549 5.496C75.1323 6.09333 74.8709 6.94733 74.8709 8.058C74.8709 9.16867 75.1323 10.0273 75.6549 10.634C76.1776 11.2407 76.9383 11.544 77.9369 11.544C78.4409 11.544 78.9123 11.4647 79.3509 11.306C79.7896 11.138 80.2189 10.8767 80.6389 10.522L81.2269 11.95C80.8443 12.3233 80.3543 12.6173 79.7569 12.832C79.1689 13.0373 78.5436 13.14 77.8809 13.14ZM85.2527 13.14C84.5434 13.14 83.9274 12.9953 83.4047 12.706C82.882 12.4167 82.476 12.006 82.1867 11.474C81.8974 10.9327 81.7527 10.298 81.7527 9.57C81.7527 8.842 81.8974 8.212 82.1867 7.68C82.476 7.148 82.882 6.73733 83.4047 6.448C83.9274 6.15867 84.5434 6.014 85.2527 6.014C85.962 6.014 86.578 6.15867 87.1007 6.448C87.6234 6.73733 88.0294 7.148 88.3187 7.68C88.608 8.212 88.7527 8.842 88.7527 9.57C88.7527 10.298 88.608 10.9327 88.3187 11.474C88.0294 12.006 87.6234 12.4167 87.1007 12.706C86.578 12.9953 85.962 13.14 85.2527 13.14ZM85.2527 11.81C85.7754 11.81 86.1954 11.6233 86.5127 11.25C86.83 10.8673 86.9887 10.3073 86.9887 9.57C86.9887 8.82333 86.83 8.268 86.5127 7.904C86.1954 7.53067 85.7754 7.344 85.2527 7.344C84.73 7.344 84.31 7.53067 83.9927 7.904C83.6754 8.268 83.5167 8.82333 83.5167 9.57C83.5167 10.3073 83.6754 10.8673 83.9927 11.25C84.31 11.6233 84.73 11.81 85.2527 11.81ZM90.2251 13V6.154H91.9331V7.526H91.7791C91.9004 7.20867 92.0684 6.938 92.2831 6.714C92.4978 6.49 92.7544 6.31733 93.0531 6.196C93.3518 6.07467 93.6831 6.014 94.0471 6.014C94.5978 6.014 95.0504 6.14467 95.4051 6.406C95.7598 6.66733 96.0071 7.06867 96.1471 7.61H95.9511C96.1378 7.11533 96.4458 6.728 96.8751 6.448C97.3044 6.15867 97.7991 6.014 98.3591 6.014C98.8818 6.014 99.3111 6.11667 99.6471 6.322C99.9924 6.52733 100.249 6.84 100.417 7.26C100.585 7.67067 100.669 8.19333 100.669 8.828V13H98.9191V8.898C98.9191 8.37533 98.8304 7.99267 98.6531 7.75C98.4851 7.50733 98.1958 7.386 97.7851 7.386C97.4864 7.386 97.2251 7.46067 97.0011 7.61C96.7771 7.75 96.6044 7.95533 96.4831 8.226C96.3711 8.49667 96.3151 8.82333 96.3151 9.206V13H94.5651V8.898C94.5651 8.37533 94.4764 7.99267 94.2991 7.75C94.1311 7.50733 93.8464 7.386 93.4451 7.386C93.1371 7.386 92.8711 7.46067 92.6471 7.61C92.4324 7.75 92.2644 7.95533 92.1431 8.226C92.0311 8.49667 91.9751 8.82333 91.9751 9.206V13H90.2251ZM102.502 13V6.154H104.21V7.526H104.056C104.178 7.20867 104.346 6.938 104.56 6.714C104.775 6.49 105.032 6.31733 105.33 6.196C105.629 6.07467 105.96 6.014 106.324 6.014C106.875 6.014 107.328 6.14467 107.682 6.406C108.037 6.66733 108.284 7.06867 108.424 7.61H108.228C108.415 7.11533 108.723 6.728 109.152 6.448C109.582 6.15867 110.076 6.014 110.636 6.014C111.159 6.014 111.588 6.11667 111.924 6.322C112.27 6.52733 112.526 6.84 112.694 7.26C112.862 7.67067 112.946 8.19333 112.946 8.828V13H111.196V8.898C111.196 8.37533 111.108 7.99267 110.93 7.75C110.762 7.50733 110.473 7.386 110.062 7.386C109.764 7.386 109.502 7.46067 109.278 7.61C109.054 7.75 108.882 7.95533 108.76 8.226C108.648 8.49667 108.592 8.82333 108.592 9.206V13H106.842V8.898C106.842 8.37533 106.754 7.99267 106.576 7.75C106.408 7.50733 106.124 7.386 105.722 7.386C105.414 7.386 105.148 7.46067 104.924 7.61C104.71 7.75 104.542 7.95533 104.42 8.226C104.308 8.49667 104.252 8.82333 104.252 9.206V13H102.502ZM117.23 13.14C116.66 13.14 116.189 13.0373 115.816 12.832C115.442 12.6173 115.162 12.3 114.976 11.88C114.798 11.46 114.71 10.9373 114.71 10.312V6.154H116.46V10.34C116.46 10.6573 116.502 10.9233 116.586 11.138C116.679 11.3527 116.814 11.5113 116.992 11.614C117.178 11.7167 117.412 11.768 117.692 11.768C118.009 11.768 118.284 11.698 118.518 11.558C118.76 11.4087 118.947 11.2033 119.078 10.942C119.218 10.6713 119.288 10.3587 119.288 10.004V6.154H121.038V13H119.33V11.572H119.526C119.33 12.076 119.031 12.4633 118.63 12.734C118.238 13.0047 117.771 13.14 117.23 13.14ZM122.859 13V6.154H124.567V7.526H124.413C124.619 7.03133 124.936 6.658 125.365 6.406C125.804 6.14467 126.299 6.014 126.849 6.014C127.4 6.014 127.853 6.11667 128.207 6.322C128.562 6.52733 128.828 6.84 129.005 7.26C129.183 7.67067 129.271 8.19333 129.271 8.828V13H127.521V8.912C127.521 8.55733 127.475 8.268 127.381 8.044C127.297 7.82 127.162 7.65667 126.975 7.554C126.798 7.442 126.569 7.386 126.289 7.386C125.953 7.386 125.659 7.46067 125.407 7.61C125.155 7.75 124.959 7.95533 124.819 8.226C124.679 8.48733 124.609 8.79533 124.609 9.15V13H122.859ZM130.937 4.684V2.976H132.897V4.684H130.937ZM131.049 13V6.154H132.799V13H131.049ZM137.753 13.14C136.838 13.14 136.157 12.9113 135.709 12.454C135.261 11.9967 135.037 11.3293 135.037 10.452V7.47H133.721V6.154H135.037V4.11H136.787V6.154H138.859V7.47H136.787V10.354C136.787 10.802 136.885 11.138 137.081 11.362C137.277 11.586 137.594 11.698 138.033 11.698C138.164 11.698 138.299 11.684 138.439 11.656C138.579 11.6187 138.724 11.5813 138.873 11.544L139.139 12.832C138.971 12.9253 138.756 13 138.495 13.056C138.243 13.112 137.996 13.14 137.753 13.14ZM140.715 15.52L142.143 12.37V13.098L139.133 6.154H140.995L143.123 11.46H142.703L144.873 6.154H146.637L142.521 15.52H140.715ZM41.078 29V19.13H47.532V20.558H42.87V23.344H47.238V24.772H42.87V29H41.078ZM51.0716 29.14C50.5023 29.14 50.0309 29.0373 49.6576 28.832C49.2843 28.6173 49.0043 28.3 48.8176 27.88C48.6403 27.46 48.5516 26.9373 48.5516 26.312V22.154H50.3016V26.34C50.3016 26.6573 50.3436 26.9233 50.4276 27.138C50.5209 27.3527 50.6563 27.5113 50.8336 27.614C51.0203 27.7167 51.2536 27.768 51.5336 27.768C51.8509 27.768 52.1263 27.698 52.3596 27.558C52.6023 27.4087 52.7889 27.2033 52.9196 26.942C53.0596 26.6713 53.1296 26.3587 53.1296 26.004V22.154H54.8796V29H53.1716V27.572H53.3676C53.1716 28.076 52.8729 28.4633 52.4716 28.734C52.0796 29.0047 51.6129 29.14 51.0716 29.14ZM56.701 29V22.154H58.409V23.526H58.255C58.4603 23.0313 58.7777 22.658 59.207 22.406C59.6457 22.1447 60.1403 22.014 60.691 22.014C61.2417 22.014 61.6943 22.1167 62.049 22.322C62.4037 22.5273 62.6697 22.84 62.847 23.26C63.0243 23.6707 63.113 24.1933 63.113 24.828V29H61.363V24.912C61.363 24.5573 61.3163 24.268 61.223 24.044C61.139 23.82 61.0037 23.6567 60.817 23.554C60.6397 23.442 60.411 23.386 60.131 23.386C59.795 23.386 59.501 23.4607 59.249 23.61C58.997 23.75 58.801 23.9553 58.661 24.226C58.521 24.4873 58.451 24.7953 58.451 25.15V29H56.701ZM67.5225 29.14C66.9251 29.14 66.3978 28.9953 65.9405 28.706C65.4925 28.4167 65.1425 28.006 64.8905 27.474C64.6385 26.9327 64.5125 26.298 64.5125 25.57C64.5125 24.8327 64.6385 24.2027 64.8905 23.68C65.1425 23.148 65.4925 22.7373 65.9405 22.448C66.3978 22.1587 66.9251 22.014 67.5225 22.014C68.0918 22.014 68.5865 22.154 69.0065 22.434C69.4358 22.714 69.7251 23.0827 69.8745 23.54H69.7205V19.13H71.4705V29H69.7625V27.544H69.8885C69.7485 28.0293 69.4638 28.4167 69.0345 28.706C68.6051 28.9953 68.1011 29.14 67.5225 29.14ZM68.0125 27.81C68.5351 27.81 68.9551 27.6233 69.2725 27.25C69.5898 26.8673 69.7485 26.3073 69.7485 25.57C69.7485 24.8233 69.5898 24.268 69.2725 23.904C68.9551 23.5307 68.5351 23.344 68.0125 23.344C67.4898 23.344 67.0698 23.5307 66.7525 23.904C66.4351 24.268 66.2765 24.8233 66.2765 25.57C66.2765 26.3073 66.4351 26.8673 66.7525 27.25C67.0698 27.6233 67.4898 27.81 68.0125 27.81ZM77.2264 29V19.13H80.8944C81.9958 19.13 82.9291 19.3213 83.6944 19.704C84.4691 20.0867 85.0571 20.6467 85.4584 21.384C85.8691 22.112 86.0744 23.0033 86.0744 24.058C86.0744 25.1127 85.8691 26.0087 85.4584 26.746C85.0571 27.4833 84.4691 28.0433 83.6944 28.426C82.9291 28.8087 81.9958 29 80.8944 29H77.2264ZM79.0184 27.516H80.7824C81.9304 27.516 82.7844 27.2313 83.3444 26.662C83.9138 26.0833 84.1984 25.2153 84.1984 24.058C84.1984 22.9007 83.9138 22.0373 83.3444 21.468C82.7751 20.8987 81.9211 20.614 80.7824 20.614H79.0184V27.516ZM86.6214 29L91.0874 19.13H92.5574L97.0234 29H95.2034L94.0134 26.228L94.7694 26.718H88.8614L89.6174 26.228L88.4414 29H86.6214ZM91.8014 21.076L89.8414 25.738L89.4774 25.29H94.1534L93.8034 25.738L91.8294 21.076H91.8014ZM102.322 29.14C101.604 29.14 100.95 29.0233 100.362 28.79C99.7836 28.5473 99.2843 28.202 98.8643 27.754C98.4536 27.306 98.1363 26.7693 97.9123 26.144C97.6883 25.5187 97.5763 24.8233 97.5763 24.058C97.5763 23.2833 97.6883 22.588 97.9123 21.972C98.1363 21.3467 98.4536 20.8147 98.8643 20.376C99.2843 19.928 99.7836 19.5873 100.362 19.354C100.95 19.1113 101.604 18.99 102.322 18.99C103.041 18.99 103.69 19.1113 104.268 19.354C104.856 19.5873 105.356 19.9233 105.766 20.362C106.186 20.8007 106.508 21.3327 106.732 21.958C106.956 22.574 107.068 23.2693 107.068 24.044C107.068 24.8187 106.956 25.5187 106.732 26.144C106.508 26.7693 106.186 27.306 105.766 27.754C105.356 28.202 104.856 28.5473 104.268 28.79C103.69 29.0233 103.041 29.14 102.322 29.14ZM102.322 27.6C102.929 27.6 103.442 27.46 103.862 27.18C104.292 26.9 104.618 26.494 104.842 25.962C105.076 25.43 105.192 24.7953 105.192 24.058C105.192 23.3113 105.08 22.6767 104.856 22.154C104.632 21.622 104.306 21.2207 103.876 20.95C103.447 20.67 102.929 20.53 102.322 20.53C101.725 20.53 101.212 20.67 100.782 20.95C100.353 21.2207 100.022 21.622 99.7883 22.154C99.5643 22.6767 99.4523 23.3113 99.4523 24.058C99.4523 24.7953 99.5643 25.43 99.7883 25.962C100.022 26.494 100.353 26.9 100.782 27.18C101.212 27.46 101.725 27.6 102.322 27.6Z" fill="white"/>
<g clip-path="url(#clip1_1031_7305)">
<rect x="114" y="20" width="20" height="10" fill="#00CC9B"/>
<rect x="114" y="20" width="1.14286" height="1.11111" fill="#00644C"/>
<rect x="132.857" y="20" width="1.14286" height="1.11111" fill="#00644C"/>
<rect x="114" y="28.8889" width="1.14286" height="1.11111" fill="#00644C"/>
<rect x="132.857" y="28.8889" width="1.14286" height="1.11111" fill="#00644C"/>
<rect x="132.857" y="21.1111" width="1.14286" height="7.77778" fill="#009370"/>
<rect x="115.143" y="28.8889" width="17.7143" height="1.11111" fill="#00B287"/>
<path d="M118 28V27H117V25H116V23H117V25H118V27H119V28H118ZM120 25V23H121V25H120ZM119 27V25H120V27H119ZM122 28V27H123V24H122V23H124V27H125V28H122ZM126 28V27H127V28H126ZM128 28V27H129V24H128V23H130V27H131V28H128Z" fill="#1C2027"/>
</g>
</g>
<defs>
<clipPath id="clip0_1031_7305">
<rect width="151" height="32" fill="white"/>
</clipPath>
<clipPath id="clip1_1031_7305">
<rect width="20" height="10" fill="white" transform="translate(114 20)"/>
</clipPath>
</defs>
</svg>
