<svg width="352" height="80" viewBox="0 0 352 80" fill="none" xmlns="http://www.w3.org/2000/svg">
<g clip-path="url(#clip0_1481_2651)">
<path d="M288.333 12H287V10.6667H288.333V12ZM291 12H289.667V10.6667H291V12ZM289.667 10.6667H288.333V9.33333H289.667V10.6667ZM288.333 9.33333H287V8H288.333V9.33333ZM291 9.33333H289.667V8H291V9.33333Z" fill="white"/>
<path d="M346.667 8H344V5.33333H346.667V8ZM352 8H349.333V5.33333H352V8ZM349.333 5.33333H346.667V2.66667H349.333V5.33333ZM346.667 2.66667H344V0H346.667V2.66667ZM352 2.66667H349.333V0H352V2.66667Z" fill="#00CC9B" fill-opacity="0.5"/>
<path opacity="0.497696" d="M86.6667 13H84V10.3333H86.6667V13ZM92 13H89.3333V10.3333H92V13ZM89.3333 10.3333H86.6667V7.66667H89.3333V10.3333ZM86.6667 7.66667H84V5H86.6667V7.66667ZM92 7.66667H89.3333V5H92V7.66667Z" fill="white"/>
<path d="M1.33333 59H0V57.6667H1.33333V59ZM4 59H2.66667V57.6667H4V59ZM2.66667 57.6667H1.33333V56.3333H2.66667V57.6667ZM1.33333 56.3333H0V55H1.33333V56.3333ZM4 56.3333H2.66667V55H4V56.3333Z" fill="white"/>
<path d="M129.667 80H127V77.3333H129.667V80ZM135 80H132.333V77.3333H135V80ZM132.333 77.3333H129.667V74.6667H132.333V77.3333ZM129.667 74.6667H127V72H129.667V74.6667ZM135 74.6667H132.333V72H135V74.6667Z" fill="#00CC9B"/>
<path d="M10.6667 24H8V21.3333H10.6667V24ZM16 24H13.3333V21.3333H16V24ZM13.3333 21.3333H10.6667V18.6667H13.3333V21.3333ZM10.6667 18.6667H8V16H10.6667V18.6667ZM16 18.6667H13.3333V16H16V18.6667Z" fill="#00CC9B" fill-opacity="0.5"/>
<path d="M18.6667 75H16V72.3333H18.6667V75ZM24 75H21.3333V72.3333H24V75ZM21.3333 72.3333H18.6667V69.6667H21.3333V72.3333ZM18.6667 69.6667H16V67H18.6667V69.6667ZM24 69.6667H21.3333V67H24V69.6667Z" fill="#00CC9B" fill-opacity="0.25"/>
<path opacity="0.7" d="M301.667 71H299V68.3333H301.667V71ZM307 71H304.333V68.3333H307V71ZM304.333 68.3333H301.667V65.6667H304.333V68.3333ZM301.667 65.6667H299V63H301.667V65.6667ZM307 65.6667H304.333V63H307V65.6667Z" fill="white"/>
<path d="M342.333 58H341V56.6667H342.333V58ZM345 58H343.667V56.6667H345V58ZM343.667 56.6667H342.333V55.3333H343.667V56.6667ZM342.333 55.3333H341V54H342.333V55.3333ZM345 55.3333H343.667V54H345V55.3333Z" fill="#00CC9B"/>
<path d="M222.105 55.9753V55.1087H222.972V55.9753H222.105Z" fill="white"/>
<path d="M216.042 55.9748V51.6442H216.909V52.5103H217.775V53.3764H218.641V54.2426H217.775V53.3764H216.909V55.9748H216.042ZM219.507 55.9748V53.3764H218.641V52.5103H219.507V51.6442H220.373V55.9748H219.507Z" fill="white"/>
<path d="M211.712 55.9748V51.6442H214.31V52.5103H212.578V53.3764H214.31V54.2426H212.578V55.1087H214.31V55.9748H211.712Z" fill="white"/>
<path d="M208.247 55.9748V52.5103H207.381V51.6442H209.98V52.5103H209.113V55.9748H208.247Z" fill="white"/>
<path d="M203.051 52.5103V51.6442H205.649V52.5103H203.051ZM204.783 55.1087V54.2426H203.051V53.3764H202.184V52.5103H203.051V53.3764H204.783V54.2426H205.649V55.1087H204.783ZM202.184 55.9748V55.1087H204.783V55.9748H202.184Z" fill="white"/>
<path d="M197.854 55.9748V53.3764H196.988V52.5103H196.122V51.6442H196.988V52.5103H197.854V53.3764H198.72V55.9748H197.854ZM199.586 52.5103V51.6442H200.452V52.5103H199.586ZM198.72 53.3764V52.5103H199.586V53.3764H198.72Z" fill="white"/>
<path d="M191.791 52.5103V51.6442H194.389V52.5103H191.791ZM193.523 55.1087V54.2426H191.791V53.3764H190.925V52.5103H191.791V53.3764H193.523V54.2426H194.389V55.1087H193.523ZM190.925 55.9748V55.1087H193.523V55.9748H190.925Z" fill="white"/>
<path d="M186.594 55.9748V55.1087H185.728V52.5103H186.594V51.6442H188.327V52.5103H189.193V55.1087H188.327V55.9748H186.594ZM186.594 55.074H188.327V52.5449H186.594V55.074Z" fill="white"/>
<path d="M183.13 53.3764V52.5103H181.397V51.6442H183.13V52.5103H183.996V53.3764H183.13ZM181.397 55.9748V55.1087H180.531V52.5103H181.397V55.1087H183.13V55.9748H181.397ZM183.13 55.1087V54.2426H183.996V55.1087H183.13Z" fill="white"/>
<path d="M176.201 55.9748V51.6442H178.799V52.5103H177.067V53.3764H178.799V54.2426H177.067V55.1087H178.799V55.9748H176.201Z" fill="white"/>
<path d="M167.539 55.9748V51.6442H170.138V52.5103H171.004V55.1087H170.138V55.9748H167.539ZM168.406 53.3764H170.103V52.5103H168.406V53.3764ZM168.406 55.1087H170.103V54.2426H168.406V55.1087Z" fill="white"/>
<path d="M162.343 55.9748V51.6442H163.209V53.3764H164.075V54.2426H164.941V55.1087H165.807V55.9748H164.941V55.1087H164.075V54.2426H163.209V55.9748H162.343ZM164.941 52.5103V51.6442H165.807V52.5103H164.941ZM164.075 53.3764V52.5103H164.941V53.3764H164.075Z" fill="white"/>
<path d="M159.744 53.3764V52.5103H158.012V51.6442H159.744V52.5103H160.61V53.3764H159.744ZM158.012 55.9748V55.1087H157.146V52.5103H158.012V55.1087H159.744V55.9748H158.012ZM159.744 55.1087V54.2426H160.61V55.1087H159.744Z" fill="white"/>
<path d="M149.351 55.9748V51.6442H151.949V52.5103H150.217V53.3764H151.949V54.2426H150.217V55.1087H151.949V55.9748H149.351Z" fill="white"/>
<path d="M144.154 55.9748V51.6442H145.02V53.3764H146.752V51.6442H147.619V55.9748H146.752V54.2426H145.02V55.9748H144.154Z" fill="white"/>
<path d="M140.69 55.9748V52.5103H139.824V51.6442H142.422V52.5103H141.556V55.9748H140.69Z" fill="white"/>
<path d="M132.028 52.5103V51.6442H134.627V52.5103H132.028ZM131.162 55.1087V52.5103H132.028V55.1087H131.162ZM133.761 55.1087V54.2426H132.895V53.3764H134.627V55.1087H133.761ZM132.028 55.9748V55.1087H133.761V55.9748H132.028Z" fill="white"/>
<path d="M125.099 55.9748V51.6442H125.966V52.5103H126.832V53.3764H127.698V54.2426H128.564V51.6442H129.43V55.9748H128.564V55.1087H127.698V54.2426H126.832V53.3764H125.966V55.9748H125.099Z" fill="white"/>
<path d="M122.501 55.9748V51.6442H123.367V55.9748H122.501Z" fill="white"/>
<path d="M117.304 55.9748V51.6442H119.903V52.5103H120.769V53.3764H119.903V55.1087H120.769V55.9748H119.903V55.1087H119.037V54.2426H118.17V55.9748H117.304ZM118.17 53.3764H119.868V52.5103H118.17V53.3764Z" fill="white"/>
<path d="M112.974 55.9748V55.1087H112.108V52.5103H112.974V51.6442H114.706V52.5103H115.572V55.1087H114.706V55.9748H112.974ZM112.974 55.074H114.706V52.5449H112.974V55.074Z" fill="white"/>
<path d="M107.777 55.9748V51.6442H108.643V55.1087H110.375V55.9748H107.777Z" fill="white"/>
<path d="M102.58 55.9748V51.6442H105.179V52.5103H106.045V53.3764H105.179V54.2426H103.446V55.9748H102.58ZM103.446 53.3764H105.144V52.5103H103.446V53.3764Z" fill="white"/>
<path d="M99.9818 55.9748V55.1087H99.1157V54.2426H98.2496V53.3764H97.3835V52.5103H96.5173V51.6442H97.3835V52.5103H98.2496V53.3764H99.1157V54.2426H99.9818V55.1087H100.848V55.9748H99.9818ZM99.1157 53.3764V52.5103H99.9818V51.6442H100.848V52.5103H99.9818V53.3764H99.1157ZM97.3835 55.1087V54.2426H98.2496V55.1087H97.3835ZM96.5173 55.9748V55.1087H97.3835V55.9748H96.5173Z" fill="white"/>
<path d="M92.1867 55.9748V51.6442H94.7851V52.5103H93.0528V53.3764H94.7851V54.2426H93.0528V55.1087H94.7851V55.9748H92.1867Z" fill="white"/>
<path d="M297.786 44.9441V40.6135H300.384V41.4796H301.25V44.078H300.384V44.9441H297.786ZM298.652 44.078H300.349V41.4796H298.652V44.078Z" fill="white"/>
<path d="M291.723 44.9441V40.6135H292.589V41.4796H293.455V42.3458H294.321V43.2119H295.187V40.6135H296.053V44.9441H295.187V44.078H294.321V43.2119H293.455V42.3458H292.589V44.9441H291.723Z" fill="white"/>
<path d="M286.526 44.9441V41.4796H287.392V40.6135H289.124V41.4796H289.99V44.9441H289.124V43.2119H287.392V44.9441H286.526ZM287.392 42.3458H289.124V41.5143H287.392V42.3458Z" fill="white"/>
<path d="M278.731 41.4796V40.6135H281.329V41.4796H278.731ZM277.865 44.078V41.4796H278.731V44.078H277.865ZM280.463 44.078V43.2119H279.597V42.3458H281.329V44.078H280.463ZM278.731 44.9441V44.078H280.463V44.9441H278.731Z" fill="white"/>
<path d="M271.802 44.9441V40.6135H272.668V41.4796H273.534V42.3458H274.4V43.2119H275.266V40.6135H276.132V44.9441H275.266V44.078H274.4V43.2119H273.534V42.3458H272.668V44.9441H271.802Z" fill="white"/>
<path d="M269.203 44.9441V40.6135H270.07V44.9441H269.203Z" fill="white"/>
<path d="M264.007 44.9441V40.6135H266.605V41.4796H267.471V44.078H266.605V44.9441H264.007ZM264.873 44.078H266.57V41.4796H264.873V44.078Z" fill="white"/>
<path d="M259.676 44.9441V40.6135H260.542V44.078H262.274V44.9441H259.676Z" fill="white"/>
<path d="M257.078 44.9441V40.6135H257.944V44.9441H257.078Z" fill="white"/>
<path d="M252.747 44.9441V44.078H251.881V40.6135H252.747V44.078H254.479V44.9441H252.747ZM254.479 44.078V40.6135H255.345V44.078H254.479Z" fill="white"/>
<path d="M246.684 44.9441V40.6135H249.283V41.4796H250.149V44.078H249.283V44.9441H246.684ZM247.55 42.3458H249.248V41.4796H247.55V42.3458ZM247.55 44.078H249.248V43.2119H247.55V44.078Z" fill="white"/>
<path d="M237.157 44.9441V40.6135H238.023V41.4796H238.889V42.3458H239.755V43.2119H240.621V40.6135H241.487V44.9441H240.621V44.078H239.755V43.2119H238.889V42.3458H238.023V44.9441H237.157Z" fill="white"/>
<path d="M234.558 44.9441V40.6135H235.425V44.9441H234.558Z" fill="white"/>
<path d="M226.763 41.4796V40.6135H229.362V41.4796H226.763ZM228.496 44.078V43.2119H226.763V42.3458H225.897V41.4796H226.763V42.3458H228.496V43.2119H229.362V44.078H228.496ZM225.897 44.9441V44.078H228.496V44.9441H225.897Z" fill="white"/>
<path d="M220.701 44.9441V40.6135H223.299V41.4796H224.165V42.3458H223.299V44.078H224.165V44.9441H223.299V44.078H222.433V43.2119H221.567V44.9441H220.701ZM221.567 42.3458H223.264V41.4796H221.567V42.3458Z" fill="white"/>
<path d="M216.37 44.9441V40.6135H218.968V41.4796H217.236V42.3458H218.968V43.2119H217.236V44.078H218.968V44.9441H216.37Z" fill="white"/>
<path d="M211.173 44.9441V40.6135H213.771V41.4796H214.638V44.078H213.771V44.9441H211.173ZM212.039 42.3458H213.737V41.4796H212.039V42.3458ZM212.039 44.078H213.737V43.2119H212.039V44.078Z" fill="white"/>
<path d="M205.11 44.9441V40.6135H205.976V41.4796H206.842V42.3458H207.709V43.2119H206.842V42.3458H205.976V44.9441H205.11ZM208.575 44.9441V42.3458H207.709V41.4796H208.575V40.6135H209.441V44.9441H208.575Z" fill="white"/>
<path d="M200.78 44.9441V40.6135H203.378V41.4796H201.646V42.3458H203.378V43.2119H201.646V44.078H203.378V44.9441H200.78Z" fill="white"/>
<path d="M194.717 44.9441V40.6135H195.583V41.4796H196.449V42.3458H197.315V43.2119H196.449V42.3458H195.583V44.9441H194.717ZM198.181 44.9441V42.3458H197.315V41.4796H198.181V40.6135H199.047V44.9441H198.181Z" fill="white"/>
<path d="M186.922 44.9441V42.3458H186.056V41.4796H185.189V40.6135H186.056V41.4796H186.922V42.3458H187.788V44.9441H186.922ZM188.654 41.4796V40.6135H189.52V41.4796H188.654ZM187.788 42.3458V41.4796H188.654V42.3458H187.788Z" fill="white"/>
<path d="M181.725 44.9441V41.4796H180.859V40.6135H183.457V41.4796H182.591V44.9441H181.725Z" fill="white"/>
<path d="M178.26 44.9441V40.6135H179.126V44.9441H178.26Z" fill="white"/>
<path d="M172.198 44.9441V40.6135H173.064V41.4796H173.93V42.3458H174.796V43.2119H175.662V40.6135H176.528V44.9441H175.662V44.078H174.796V43.2119H173.93V42.3458H173.064V44.9441H172.198Z" fill="white"/>
<path d="M167.867 44.9441V44.078H167.001V40.6135H167.867V44.078H169.599V44.9441H167.867ZM169.599 44.078V40.6135H170.465V44.078H169.599Z" fill="white"/>
<path d="M160.938 44.9441V40.6135H161.804V41.4796H162.67V42.3458H163.536V43.2119H162.67V42.3458H161.804V44.9441H160.938ZM164.402 44.9441V42.3458H163.536V41.4796H164.402V40.6135H165.269V44.9441H164.402Z" fill="white"/>
<path d="M154.875 44.9441V40.6135H155.741V41.4796H156.607V42.3458H157.473V43.2119H156.607V42.3458H155.741V44.9441H154.875ZM158.34 44.9441V42.3458H157.473V41.4796H158.34V40.6135H159.206V44.9441H158.34Z" fill="white"/>
<path d="M150.544 44.9441V44.078H149.678V41.4796H150.544V40.6135H152.277V41.4796H153.143V44.078H152.277V44.9441H150.544ZM150.544 44.0434H152.277V41.5143H150.544V44.0434Z" fill="white"/>
<path d="M147.08 42.3458V41.4796H145.348V40.6135H147.08V41.4796H147.946V42.3458H147.08ZM145.348 44.9441V44.078H144.482V41.4796H145.348V44.078H147.08V44.9441H145.348ZM147.08 44.078V43.2119H147.946V44.078H147.08Z" fill="white"/>
<path d="M137.553 44.9441V41.4796H136.686V40.6135H139.285V41.4796H138.419V44.9441H137.553Z" fill="white"/>
<path d="M131.49 44.9441V40.6135H134.088V41.4796H134.954V42.3458H134.088V44.078H134.954V44.9441H134.088V44.078H133.222V43.2119H132.356V44.9441H131.49ZM132.356 42.3458H134.053V41.4796H132.356V42.3458Z" fill="white"/>
<path d="M127.159 44.9441V44.078H126.293V41.4796H127.159V40.6135H128.891V41.4796H129.757V44.078H128.891V44.9441H127.159ZM127.159 44.0434H128.891V41.5143H127.159V44.0434Z" fill="white"/>
<path d="M121.096 44.9441V40.6135H123.695V41.4796H124.561V42.3458H123.695V43.2119H121.962V44.9441H121.096ZM121.962 42.3458H123.66V41.4796H121.962V42.3458Z" fill="white"/>
<path d="M115.899 44.9441V40.6135H118.498V41.4796H119.364V42.3458H118.498V43.2119H116.766V44.9441H115.899ZM116.766 42.3458H118.463V41.4796H116.766V42.3458Z" fill="white"/>
<path d="M111.569 44.9441V44.078H110.703V40.6135H111.569V44.078H113.301V44.9441H111.569ZM113.301 44.078V40.6135H114.167V44.078H113.301Z" fill="white"/>
<path d="M106.372 41.4796V40.6135H108.97V41.4796H106.372ZM108.104 44.078V43.2119H106.372V42.3458H105.506V41.4796H106.372V42.3458H108.104V43.2119H108.97V44.078H108.104ZM105.506 44.9441V44.078H108.104V44.9441H105.506Z" fill="white"/>
<path d="M97.7109 44.9441V44.078H96.8447V41.4796H97.7109V40.6135H99.4431V41.4796H100.309V44.078H99.4431V44.9441H97.7109ZM97.7109 44.0434H99.4431V41.5143H97.7109V44.0434Z" fill="white"/>
<path d="M93.3803 44.9441V41.4796H92.5142V40.6135H95.1125V41.4796H94.2464V44.9441H93.3803Z" fill="white"/>
<path d="M273.699 26.2741V24.6193H272.044V19.6548H273.699V18H277.009V19.6548H278.664V24.6193H277.009V26.2741H273.699ZM273.699 24.5531H277.009V19.721H273.699V24.5531Z" fill="#00CC9B"/>
<path d="M262.998 26.2741V19.6548H264.653V18H267.963V19.6548H269.617V26.2741H267.963V22.9645H264.653V26.2741H262.998ZM264.653 21.3096H267.963V19.721H264.653V21.3096Z" fill="#00CC9B"/>
<path d="M253.952 26.2741V18H258.916V19.6548H260.571V24.6193H258.916V26.2741H253.952ZM255.607 24.6193H258.85V19.6548H255.607V24.6193Z" fill="#00CC9B"/>
<path d="M239.169 26.2741V18H244.133V19.6548H245.788V24.6193H244.133V26.2741H239.169ZM240.823 24.6193H244.067V19.6548H240.823V24.6193Z" fill="#00CC9B"/>
<path d="M228.467 26.2741V18H230.122V19.6548H231.777V21.3096H233.432V22.9645H235.087V18H236.742V26.2741H235.087V24.6193H233.432V22.9645H231.777V21.3096H230.122V26.2741H228.467Z" fill="#00CC9B"/>
<path d="M221.076 26.2741V24.6193H219.421V18H221.076V24.6193H224.386V26.2741H221.076ZM224.386 24.6193V18H226.04V24.6193H224.386Z" fill="#00CC9B"/>
<path d="M212.03 26.2741V18H216.994V19.6548H213.684V21.3096H216.994V22.9645H213.684V26.2741H212.03Z" fill="#00CC9B"/>
<path d="M198.901 26.2741V21.3096H197.247V19.6548H195.592V18H197.247V19.6548H198.901V21.3096H200.556V26.2741H198.901ZM202.211 19.6548V18H203.866V19.6548H202.211ZM200.556 21.3096V19.6548H202.211V21.3096H200.556Z" fill="#00CC9B"/>
<path d="M189.855 26.2741V19.6548H188.2V18H193.165V19.6548H191.51V26.2741H189.855Z" fill="#00CC9B"/>
<path d="M184.118 26.2741V18H185.773V26.2741H184.118Z" fill="#00CC9B"/>
<path d="M173.417 26.2741V18H175.072V19.6548H176.727V21.3096H178.382V22.9645H180.036V18H181.691V26.2741H180.036V24.6193H178.382V22.9645H176.727V21.3096H175.072V26.2741H173.417Z" fill="#00CC9B"/>
<path d="M166.026 26.2741V24.6193H164.371V18H166.026V24.6193H169.335V26.2741H166.026ZM169.335 24.6193V18H170.99V24.6193H169.335Z" fill="#00CC9B"/>
<path d="M153.67 26.2741V18H155.324V19.6548H156.979V21.3096H158.634V22.9645H156.979V21.3096H155.324V26.2741H153.67ZM160.289 26.2741V21.3096H158.634V19.6548H160.289V18H161.944V26.2741H160.289Z" fill="#00CC9B"/>
<path d="M142.968 26.2741V18H144.623V19.6548H146.278V21.3096H147.933V22.9645H146.278V21.3096H144.623V26.2741H142.968ZM149.588 26.2741V21.3096H147.933V19.6548H149.588V18H151.243V26.2741H149.588Z" fill="#00CC9B"/>
<path d="M135.577 26.2741V24.6193H133.922V19.6548H135.577V18H138.887V19.6548H140.541V24.6193H138.887V26.2741H135.577ZM135.577 24.5531H138.887V19.721H135.577V24.5531Z" fill="#00CC9B"/>
<path d="M129.84 21.3096V19.6548H126.531V18H129.84V19.6548H131.495V21.3096H129.84ZM126.531 26.2741V24.6193H124.876V19.6548H126.531V24.6193H129.84V26.2741H126.531ZM129.84 24.6193V22.9645H131.495V24.6193H129.84Z" fill="#00CC9B"/>
<path d="M110.093 26.2741V18H115.057V19.6548H116.712V24.6193H115.057V26.2741H110.093ZM111.748 21.3096H114.991V19.6548H111.748V21.3096ZM111.748 24.6193H114.991V22.9645H111.748V24.6193Z" fill="#00CC9B"/>
<path d="M101.046 26.2741V18H102.701V21.3096H104.356V22.9645H106.011V24.6193H107.666V26.2741H106.011V24.6193H104.356V22.9645H102.701V26.2741H101.046ZM106.011 19.6548V18H107.666V19.6548H106.011ZM104.356 21.3096V19.6548H106.011V21.3096H104.356Z" fill="#00CC9B"/>
<path d="M96.9645 21.3096V19.6548H93.6548V18H96.9645V19.6548H98.6193V21.3096H96.9645ZM93.6548 26.2741V24.6193H92V19.6548H93.6548V24.6193H96.9645V26.2741H93.6548ZM96.9645 24.6193V22.9645H98.6193V24.6193H96.9645Z" fill="#00CC9B"/>
<path d="M228 56V51H229V56H228Z" fill="white"/>
<path d="M313.822 18.5003L313.519 17.5507L312.578 17.8652L312.295 16.9802L310.549 17.5633L310.328 16.8737L307.918 17.6783L307.775 17.2301L304.844 18.2094L304.793 18.0497L301.528 19.1399L301.569 19.2696L298.638 20.2489L298.781 20.6971L296.372 21.502L296.592 22.192L294.846 22.7751L295.129 23.6602L294.188 23.9747L294.501 24.9544L289.706 26.5558L289 24.3453L289.941 24.0308L289.611 22.9974L291.357 22.4143L291.074 21.5293L293.484 20.7243L293.263 20.0343L296.194 19.0554L296.051 18.6072L299.362 17.5011L299.311 17.3414L304.105 15.74L304.115 15.7701L305.552 15.2902L305.603 15.4499L308.914 14.3438L309.057 14.792L311.988 13.8131L312.209 14.5031L314.619 13.6981L314.902 14.5831L316.648 13.9996L316.978 15.033L317.919 14.7184L318.617 16.8989L313.822 18.5003Z" fill="black"/>
<path d="M293.817 24.5302L293.531 23.6342L294.472 23.3196L294.189 22.4346L295.936 21.8515L295.715 21.1615L298.125 20.3565L297.982 19.9083L300.913 18.929L300.862 18.7693L301.805 18.4544L301.815 18.4845L305.126 17.3784L305.177 17.5381L308.108 16.5592L308.251 17.0074L310.661 16.2024L310.882 16.8924L312.628 16.3093L312.911 17.1939L313.852 16.8798L314.138 17.7758L314.156 17.8295L317.96 16.5584L317.943 16.5052L317.587 15.3897L316.645 15.7038L316.315 14.6709L314.569 15.254L314.286 14.369L311.876 15.174L311.655 14.484L308.724 15.4633L308.581 15.0151L305.27 16.1208L305.219 15.9611L303.782 16.4414L303.772 16.4109L299.968 17.682L300.018 17.8416L296.708 18.9477L296.851 19.3959L293.92 20.3748L294.14 21.0648L291.731 21.8698L292.013 22.7548L290.267 23.3379L290.598 24.3713L289.656 24.6858L290.013 25.8012L290.04 25.8845L293.845 24.6139L293.817 24.5302Z" fill="#70747C"/>
<path d="M305.099 28.5063L305.084 28.46L304.372 28.6981L304.293 28.4522L302.653 29L302.432 28.3104L300.98 28.7956L300.64 27.7342L299.446 28.1329L299.011 26.7716L298.146 27.0605L297.637 25.4709L297.171 25.6265L295.757 21.2038L296.223 21.0477L295.715 19.4581L296.58 19.1688L296.145 17.8075L297.339 17.4085L297 16.3471L298.452 15.8619L298.232 15.1723L299.873 14.6242L299.794 14.3783L302.442 13.4937L302.457 13.54L303.169 13.3023L303.248 13.5482L304.888 13L305.109 13.6896L306.561 13.2044L306.901 14.2662L308.095 13.8671L308.53 15.2288L309.395 14.9395L309.904 16.5295L310.37 16.3735L311.784 20.7966L311.318 20.9523L311.826 22.5423L310.96 22.8312L311.396 24.1929L310.202 24.5915L310.541 25.6533L309.089 26.1385L309.309 26.8281L307.668 27.3758L307.747 27.6217L305.099 28.5063Z" fill="black"/>
<path d="M309.414 17.2033L308.926 15.6766L308.095 15.9542L307.677 14.6465L306.53 15.0297L306.204 14.0102L304.809 14.4763L304.597 13.8139L303.022 14.3401L302.946 14.1041L302.262 14.3328L302.248 14.2881L300.437 14.8928L300.513 15.1289L298.937 15.6555L299.149 16.3174L297.754 16.7835L298.08 17.803L296.933 18.1858L297.351 19.4935L296.52 19.7714L297.009 21.2981L296.561 21.4476L297.087 23.0957L297.152 23.2981L297.679 24.9463L298.127 24.7967L298.615 26.3234L299.446 26.0458L299.864 27.3535L301.011 26.9703L301.337 27.9898L302.732 27.5241L302.944 28.1861L304.519 27.6599L304.595 27.896L305.279 27.6676L305.293 27.7119L307.103 27.1072L307.028 26.8711L308.603 26.3449L308.392 25.6826L309.787 25.2165L309.461 24.1974L310.607 23.8142L310.19 22.5065L311.02 22.229L310.533 20.7024L310.98 20.5524L310.454 18.9047L310.389 18.7019L309.862 17.0537L309.414 17.2033Z" fill="#00CC9B"/>
<path d="M303.895 26.7033L303.885 26.6733L302.448 27.1532L302.397 26.9935L299.086 28.0991L298.943 27.6509L296.012 28.6302L295.791 27.9403L293.381 28.7452L293.098 27.8602L291.352 28.4433L291.022 27.4104L290.08 27.7245L289.383 25.544L294.178 23.9426L294.481 24.8922L295.422 24.5781L295.705 25.4631L297.451 24.8796L297.672 25.5696L300.082 24.7646L300.225 25.2128L303.156 24.2339L303.207 24.3936L306.472 23.303L306.431 23.1734L309.362 22.1945L309.219 21.7463L311.628 20.9413L311.408 20.2513L313.154 19.6678L312.871 18.7832L313.812 18.4687L313.499 17.4889L318.293 15.8875L319 18.0981L318.059 18.4122L318.389 19.4455L316.643 20.029L316.926 20.9141L314.516 21.719L314.737 22.4086L311.806 23.3879L311.949 23.8361L308.638 24.9418L308.689 25.1019L303.895 26.7033Z" fill="black"/>
<path d="M290.413 27.0536L291.355 26.7391L291.685 27.7724L293.431 27.1893L293.714 28.0739L296.124 27.2694L296.345 27.9589L299.276 26.98L299.419 27.4282L302.73 26.3222L302.781 26.4823L304.218 26.002L304.228 26.032L308.032 24.7614L307.982 24.6017L311.292 23.4956L311.149 23.0474L314.08 22.0681L313.86 21.3785L316.269 20.5735L315.986 19.6885L317.733 19.105L317.402 18.072L318.344 17.7575L317.987 16.6421L317.96 16.5584L314.155 17.8295L314.182 17.9132L314.469 18.8092L313.528 19.1237L313.81 20.0083L312.064 20.5918L312.285 21.2818L309.875 22.0868L310.018 22.535L307.087 23.5139L307.138 23.6736L306.195 23.9889L306.185 23.9588L302.874 25.0645L302.823 24.9048L299.892 25.8841L299.749 25.4359L297.339 26.2405L297.118 25.5509L295.372 26.134L295.089 25.249L294.148 25.5635L293.862 24.6675L293.844 24.6139L290.04 25.8845L290.057 25.9382L290.413 27.0536Z" fill="#8B9099"/>
<path d="M298.434 18.2169L299.54 17.8475L299.901 18.9777L298.796 19.347L298.434 18.2169Z" fill="black"/>
<path d="M306.958 20.6803L308.063 20.3109L308.425 21.441L307.319 21.8104L306.958 20.6803Z" fill="black"/>
<path d="M298.539 22.3734L299.645 22.004L300.006 23.1341L298.901 23.5035L298.539 22.3734Z" fill="black"/>
<path d="M304.61 15.2503L305.716 14.8809L306.077 16.011L304.971 16.3804L304.61 15.2503Z" fill="black"/>
<path d="M306.294 16.2164L307.399 15.847L307.761 16.9772L306.655 17.3465L306.294 16.2164Z" fill="black"/>
<path d="M307.835 17.2097L308.94 16.8404L309.302 17.9705L308.196 18.3399L307.835 17.2097Z" fill="black"/>
<path d="M306.65 22.0339L307.32 21.8103L307.538 22.4943L306.869 22.7179L306.65 22.0339Z" fill="black"/>
<path d="M299.784 19.0169L302.612 18.0719L302.973 19.2021L300.145 20.147L299.784 19.0169Z" fill="black"/>
<path d="M35.4483 18.4545H36.8966V19.9091H38.3449V21.3636H39.7931V22.8182H41.2414V24.2727H42.6897V25.7273H44.138V27.1818H45.5862V28.6364H47.0345V30.0909H48.4828V31.5455H49.9311V33H51.3793V34.4545H52.8276V35.9091H44.8621V55.1818H35.4483V18.4545Z" fill="#00CC9B"/>
<path d="M35.4483 18.4545V17H36.8966V18.4545H35.4483Z" fill="#1E2229"/>
<path d="M36.8966 19.9091V18.4545H38.3449V19.9091H36.8966Z" fill="#1E2229"/>
<path d="M38.3448 21.3636V19.9091H39.7931V21.3636H38.3448Z" fill="#1E2229"/>
<path d="M39.7932 22.8182V21.3636H41.2414V22.8182H39.7932Z" fill="#1E2229"/>
<path d="M41.2414 24.2727V22.8182H42.6897V24.2727H41.2414Z" fill="#1E2229"/>
<path d="M42.6897 25.7273V24.2727H44.138V25.7273H42.6897Z" fill="#1E2229"/>
<path d="M44.1379 27.1818V25.7273H45.5862V27.1818H44.1379Z" fill="#1E2229"/>
<path d="M45.5862 28.6364V27.1818H47.0345V28.6364H45.5862Z" fill="#1E2229"/>
<path d="M47.0345 30.0909V28.6364H48.4828V30.0909H47.0345Z" fill="#1E2229"/>
<path d="M48.4828 31.5455V30.0909H49.9311V31.5455H48.4828Z" fill="#1E2229"/>
<path d="M49.9311 33V31.5455H51.3794V33H49.9311Z" fill="#1E2229"/>
<path d="M51.3793 34.4545V33H52.8276V34.4545H51.3793Z" fill="#1E2229"/>
<path d="M52.8276 35.9091V34.4545H54.2759V35.9091H52.8276Z" fill="#1E2229"/>
<path d="M35.4483 19.9091V18.4545H36.8966V19.9091H35.4483Z" fill="#009A75"/>
<path d="M36.8966 21.3636V19.9091H38.3449V21.3636H36.8966Z" fill="#009A75"/>
<path d="M38.3448 22.8182V21.3636H39.7931V22.8182H38.3448Z" fill="#009A75"/>
<path d="M39.7932 24.2727V22.8182H41.2414V24.2727H39.7932Z" fill="#009A75"/>
<path d="M41.2414 25.7273V24.2727H42.6897V25.7273H41.2414Z" fill="#009A75"/>
<path d="M42.6897 27.1818V25.7273H44.138V27.1818H42.6897Z" fill="#009A75"/>
<path d="M44.1379 28.6364V27.1818H45.5862V28.6364H44.1379Z" fill="#009A75"/>
<path d="M45.5862 30.0909V28.6364H47.0345V30.0909H45.5862Z" fill="#009A75"/>
<path d="M47.0345 31.5455V30.0909H48.4828V31.5455H47.0345Z" fill="#009A75"/>
<path d="M48.4828 33V31.5455H49.9311V33H48.4828Z" fill="#009A75"/>
<path d="M49.9311 34.4545V33H51.3794V34.4545H49.9311Z" fill="#009A75"/>
<path d="M51.3793 35.9091V34.4545H52.8276V35.9091H51.3793Z" fill="#009A75"/>
<path d="M52.8276 37.3636V35.9091H54.2759V37.3636H52.8276Z" fill="#009A75"/>
<path d="M46.3104 37.3636V35.9091H52.8276V37.3636H46.3104Z" fill="#1E2229"/>
<path d="M35.4483 57V55.5455H44.8621V57H35.4483Z" fill="#1E2229"/>
<path d="M34 55.5455V18.4545H35.4483V55.5455H34Z" fill="#1E2229"/>
<path d="M44.8621 55.5455V37.3636H46.3103V55.5455H44.8621Z" fill="#1E2229"/>
<path d="M34 18.4545V17H35.4483V18.4545H34Z" fill="#2B313B"/>
<path d="M34 57V55.5455H35.4483V57H34Z" fill="#2B313B"/>
<path d="M44.8621 57V55.5455H46.3103V57H44.8621Z" fill="#2B313B"/>
<path d="M52.8276 37.3636V35.9091H54.2759V37.3636H52.8276Z" fill="#2B313B"/>
<path d="M44.8621 37.3636V35.9091H46.3103V37.3636H44.8621Z" fill="#00926E"/>
<path d="M35.4483 54.0909V19.9091H36.8966V54.0909H35.4483Z" fill="#00A980"/>
<path d="M35.4483 55.5455V54.0909H44.8621V55.5455H35.4483Z" fill="#00A980"/>
<path d="M35.4483 54.4545V53H44.8621V54.4545H35.4483Z" fill="#00A980" fill-opacity="0.5"/>
<path d="M35.4483 53V51.5455H44.8621V53H35.4483Z" fill="#00A980" fill-opacity="0.2"/>
<path d="M35.4483 51.5455V50.0909H44.8621V51.5455H35.4483Z" fill="#00A980" fill-opacity="0.1"/>
<path d="M74.5517 55.5455H73.1034V54.0909H71.6551V52.6364H70.2069V51.1818H68.7586V49.7273H67.3103V48.2727H65.862V46.8182H64.4138V45.3636H62.9655V43.9091H61.5172V42.4545H60.0689V41H58.6207V39.5455H57.1724V38.0909H65.1379V18.8182H74.5517V55.5455Z" fill="#00CC9B"/>
<path d="M66.5862 18.4545V36.6364H65.1379V18.4545H66.5862Z" fill="#00A980"/>
<path d="M74.5517 55.5455V57H73.1034V55.5455H74.5517Z" fill="#1E2229"/>
<path d="M73.1034 54.0909V55.5455H71.6551V54.0909H73.1034Z" fill="#1E2229"/>
<path d="M71.6552 52.6364V54.0909H70.2069V52.6364H71.6552Z" fill="#1E2229"/>
<path d="M70.2068 51.1818V52.6364H68.7586V51.1818H70.2068Z" fill="#1E2229"/>
<path d="M68.7586 49.7273V51.1818H67.3103V49.7273H68.7586Z" fill="#1E2229"/>
<path d="M67.3103 48.2727V49.7273H65.862V48.2727H67.3103Z" fill="#1E2229"/>
<path d="M65.8621 46.8182V48.2727H64.4138V46.8182H65.8621Z" fill="#1E2229"/>
<path d="M64.4138 45.3636V46.8182H62.9655V45.3636H64.4138Z" fill="#1E2229"/>
<path d="M62.9655 43.9091V45.3636H61.5172V43.9091H62.9655Z" fill="#1E2229"/>
<path d="M61.5172 42.4545V43.9091H60.0689V42.4545H61.5172Z" fill="#1E2229"/>
<path d="M60.0689 41V42.4545H58.6206V41H60.0689Z" fill="#1E2229"/>
<path d="M58.6207 39.5455V41H57.1724V39.5455H58.6207Z" fill="#1E2229"/>
<path d="M57.1724 38.0909V39.5455H55.7241V38.0909H57.1724Z" fill="#1E2229"/>
<path d="M74.5517 54.0909V55.5455H73.1034V54.0909H74.5517Z" fill="#009A75"/>
<path d="M73.1034 52.6364V54.0909H71.6551V52.6364H73.1034Z" fill="#009A75"/>
<path d="M71.6552 51.1818V52.6364H70.2069V51.1818H71.6552Z" fill="#009A75"/>
<path d="M70.2068 49.7273V51.1818H68.7586V49.7273H70.2068Z" fill="#009A75"/>
<path d="M68.7586 48.2727V49.7273H67.3103V48.2727H68.7586Z" fill="#009A75"/>
<path d="M67.3103 46.8182V48.2727H65.862V46.8182H67.3103Z" fill="#009A75"/>
<path d="M65.8621 45.3636V46.8182H64.4138V45.3636H65.8621Z" fill="#009A75"/>
<path d="M64.4138 43.9091V45.3636H62.9655V43.9091H64.4138Z" fill="#009A75"/>
<path d="M62.9655 42.4545V43.9091H61.5172V42.4545H62.9655Z" fill="#009A75"/>
<path d="M61.5172 41V42.4545H60.0689V41H61.5172Z" fill="#009A75"/>
<path d="M60.0689 39.5455V41H58.6206V39.5455H60.0689Z" fill="#009A75"/>
<path d="M58.6207 38.0909V39.5455H57.1724V38.0909H58.6207Z" fill="#009A75"/>
<path d="M57.1724 36.6364V38.0909H55.7241V36.6364H57.1724Z" fill="#009A75"/>
<path d="M63.6896 36.6364V38.0909H57.1724V36.6364H63.6896Z" fill="#1E2229"/>
<path d="M74.5517 17V18.4545H65.1379V17H74.5517Z" fill="#1E2229"/>
<path d="M76 18.4545V55.5455H74.5517V18.4545H76Z" fill="#1E2229"/>
<path d="M65.1379 18.4545V36.6364H63.6897V18.4545H65.1379Z" fill="#1E2229"/>
<path d="M76 55.5455V57H74.5517V55.5455H76Z" fill="#2B313B"/>
<path d="M76 17V18.4545H74.5517V17H76Z" fill="#2B313B"/>
<path d="M65.1379 17V18.4545H63.6897V17H65.1379Z" fill="#2B313B"/>
<path d="M57.1724 36.6364V38.0909H55.7241V36.6364H57.1724Z" fill="#2B313B"/>
<path d="M65.1379 36.6364V38.0909H63.6897V36.6364H65.1379Z" fill="#00926E"/>
<path d="M74.5517 18.4545V19.9091H65.1379V18.4545H74.5517Z" fill="#00A980"/>
<path d="M74.5517 19.5455V21H65.1379V19.5455H74.5517Z" fill="#00A980" fill-opacity="0.5"/>
<path d="M74.5517 21V22.4545H65.1379V21H74.5517Z" fill="#00A980" fill-opacity="0.2"/>
<path d="M74.5517 22.4545V23.9091H65.1379V22.4545H74.5517Z" fill="#00A980" fill-opacity="0.1"/>
</g>
<defs>
<clipPath id="clip0_1481_2651">
<rect width="352" height="80" fill="white"/>
</clipPath>
</defs>
</svg>
