<svg width="1104" height="100" viewBox="0 0 1104 100" fill="none" xmlns="http://www.w3.org/2000/svg">
<g clip-path="url(#clip0_331_49)">
<path d="M74 46H70V42H74V46ZM82 46H78V42H82V46ZM78 42H74V38H78V42ZM74 38H70V34H74V38ZM82 38H78V34H82V38Z" fill="#00CC9B"/>
<path d="M401 100H397V96H401V100ZM409 100H405V96H409V100ZM405 96H401V92H405V96ZM401 92H397V88H401V92ZM409 92H405V88H409V92Z" fill="#00CC9B"/>
<path d="M852 24H848V20H852V24ZM860 24H856V20H860V24ZM856 20H852V16H856V20ZM852 16H848V12H852V16ZM860 16H856V12H860V16Z" fill="#00CC9B"/>
<path opacity="0.497696" d="M224 12H220V8H224V12ZM232 12H228V8H232V12ZM228 8H224V4H228V8ZM224 4H220V0H224V4ZM232 4H228V0H232V4Z" fill="white"/>
<path d="M104 96H100V92H104V96ZM112 96H108V92H112V96ZM108 92H104V88H108V92ZM104 88H100V84H104V88ZM112 88H108V84H112V88Z" fill="#00CC9B"/>
<path d="M2 79H0V77H2V79ZM6 79H4V77H6V79ZM4 77H2V75H4V77ZM2 75H0V73H2V75ZM6 75H4V73H6V75Z" fill="white"/>
<path d="M722 9H720V7H722V9ZM726 9H724V7H726V9ZM724 7H722V5H724V7ZM722 5H720V3H722V5ZM726 5H724V3H726V5Z" fill="white"/>
<path opacity="0.7" d="M1054 52H1050V48H1054V52ZM1062 52H1058V48H1062V52ZM1058 48H1054V44H1058V48ZM1054 44H1050V40H1054V44ZM1062 44H1058V40H1062V44Z" fill="white"/>
<path d="M1100 80H1098V78H1100V80ZM1104 80H1102V78H1104V80ZM1102 78H1100V76H1102V78ZM1100 76H1098V74H1100V76ZM1104 76H1102V74H1104V76Z" fill="#00CC9B"/>
<path d="M805.091 19.3758L804.394 17.2391L802.229 17.9467L801.578 15.9554L797.562 17.2674L797.054 15.7159L791.511 17.5262L791.182 16.5177L784.441 18.7211L784.323 18.3618L776.814 20.8149L776.909 21.1065L770.168 23.3099L770.497 24.3184L764.955 26.1296L765.462 27.6821L761.446 28.9941L762.097 30.9854L759.931 31.693L760.652 33.8974L749.625 37.5006L748 32.5269L750.164 31.8192L749.404 29.4942L753.421 28.1822L752.77 26.1909L758.313 24.3797L757.806 22.8272L764.547 20.6247L764.218 19.6162L771.833 17.1275L771.715 16.7682L782.742 13.165L782.764 13.2327L786.07 12.1529L786.187 12.5122L793.802 10.0235L794.132 11.032L800.874 8.82948L801.381 10.3819L806.923 8.57074L807.574 10.5621L811.591 9.24914L812.351 11.5742L814.515 10.8665L816.119 15.7726L805.091 19.3758Z" fill="black"/>
<path d="M759.08 32.9429L758.422 30.9269L760.586 30.2192L759.935 28.2279L763.952 26.9159L763.445 25.3634L768.987 23.5522L768.658 22.5438L775.4 20.3403L775.282 19.981L777.452 19.2725L777.474 19.3401L785.089 16.8514L785.206 17.2107L791.949 15.0082L792.278 16.0167L797.821 14.2055L798.328 15.7579L802.344 14.4459L802.995 16.4363L805.16 15.7296L805.818 17.7456L805.858 17.8663L814.609 15.0064L814.569 14.8866L813.75 12.3769L811.584 13.0837L810.824 10.7595L806.808 12.0715L806.158 10.0802L800.615 11.8914L800.107 10.339L793.366 12.5424L793.037 11.5339L785.421 14.0217L785.304 13.6624L781.998 14.7431L781.976 14.6745L773.225 17.5344L773.342 17.8937L765.728 20.3824L766.058 21.3909L759.315 23.5934L759.823 25.1458L754.281 26.957L754.931 28.9483L750.915 30.2603L751.675 32.5854L749.51 33.293L750.33 35.8027L750.391 35.9902L759.142 33.1312L759.08 32.9429Z" fill="#70747C"/>
<path d="M785.028 41.8891L784.994 41.7849L783.355 42.3207L783.174 41.7675L779.401 43L778.894 41.4485L775.553 42.5401L774.772 40.152L772.026 41.0489L771.025 37.9861L769.035 38.6361L767.865 35.0594L766.793 35.4096L763.54 25.4585L764.613 25.1074L763.444 21.5307L765.435 20.8798L764.434 17.8169L767.179 16.9191L766.4 14.531L769.74 13.4393L769.233 11.8878L773.007 10.6544L772.826 10.1013L778.916 8.11086L778.951 8.21509L780.588 7.68023L780.77 8.23337L784.543 7L785.05 8.55154L788.391 7.45989L789.172 9.84891L791.917 8.95109L792.919 12.0149L794.909 11.3639L796.079 14.9415L797.151 14.5904L800.403 24.5424L799.331 24.8926L800.5 28.4702L798.509 29.1202L799.51 32.184L796.764 33.0809L797.544 35.4699L794.204 36.5616L794.711 38.1131L790.937 39.3456L791.118 39.8987L785.028 41.8891Z" fill="black"/>
<path d="M794.952 16.4574L793.829 13.0224L791.917 13.6469L790.956 10.7047L788.319 11.5669L787.569 9.27291L784.361 10.3216L783.874 8.83131L780.25 10.0153L780.077 9.48411L778.503 9.99886L778.47 9.89829L774.306 11.2587L774.48 11.7899L770.856 12.9749L771.343 14.4642L768.134 15.5129L768.884 17.8069L766.247 18.6681L767.208 21.6103L765.297 22.2357L766.42 25.6706L765.389 26.0071L766.601 29.7154L766.75 30.1707L767.962 33.8791L768.992 33.5426L770.115 36.9776L772.027 36.3531L772.988 39.2953L775.625 38.4331L776.375 40.7271L779.583 39.6793L780.07 41.1687L783.694 39.9847L783.867 40.5159L785.441 40.0021L785.474 40.1017L789.638 38.7413L789.464 38.2101L793.088 37.0261L792.601 35.5358L795.81 34.4871L795.06 32.1941L797.697 31.3319L796.736 28.3897L798.647 27.7653L797.525 24.3303L798.555 23.9929L797.343 20.2855L797.194 19.8293L795.982 16.1209L794.952 16.4574Z" fill="#00CC9B"/>
<path d="M782.258 37.8325L782.236 37.7648L778.93 38.8446L778.813 38.4853L771.197 40.973L770.868 39.9646L764.127 42.168L763.619 40.6155L758.076 42.4267L757.426 40.4354L753.409 41.7474L752.65 39.4233L750.484 40.1301L748.881 35.224L759.909 31.6208L760.606 33.7575L762.771 33.0507L763.422 35.0421L767.438 33.7291L767.946 35.2816L773.489 33.4704L773.818 34.4789L780.559 32.2763L780.677 32.6357L788.186 30.1817L788.091 29.8901L794.832 27.6875L794.503 26.6791L800.045 24.8679L799.538 23.3154L803.554 22.0025L802.903 20.0121L805.069 19.3045L804.348 17.1001L815.374 13.4969L817 18.4706L814.836 19.1774L815.596 21.5024L811.579 22.8153L812.23 24.8066L806.687 26.6178L807.194 28.1694L800.453 30.3728L800.782 31.3813L793.167 33.869L793.284 34.2293L782.258 37.8325Z" fill="black"/>
<path d="M751.25 38.6206L753.416 37.9129L754.176 40.2379L758.192 38.9259L758.842 40.9163L764.385 39.1061L764.893 40.6576L771.634 38.4551L771.963 39.4635L779.579 36.9749L779.696 37.3351L783.001 36.2544L783.024 36.3221L791.775 33.4631L791.658 33.1038L799.272 30.6151L798.942 29.6066L805.685 27.4032L805.177 25.8517L810.719 24.0405L810.068 22.0491L814.085 20.7362L813.325 18.4121L815.49 17.7045L814.67 15.1947L814.609 15.0064L805.858 17.8663L805.919 18.0546L806.578 20.0706L804.414 20.7783L805.064 22.7687L801.048 24.0816L801.555 25.6341L796.013 27.4453L796.342 28.4537L789.6 30.6562L789.718 31.0155L787.548 31.725L787.526 31.6574L779.911 34.1451L779.793 33.7858L773.051 35.9893L772.722 34.9808L767.179 36.7911L766.672 35.2395L762.656 36.5515L762.005 34.5602L759.84 35.2679L759.182 33.2519L759.142 33.1312L750.391 35.9902L750.43 36.1109L751.25 38.6206Z" fill="#8B9099"/>
<path d="M769.698 18.738L772.241 17.9069L773.072 20.4497L770.53 21.2809L769.698 18.738Z" fill="black"/>
<path d="M789.303 24.2806L791.846 23.4494L792.677 25.9923L790.134 26.8234L789.303 24.2806Z" fill="black"/>
<path d="M769.941 28.0901L772.483 27.259L773.315 29.8018L770.772 30.6329L769.941 28.0901Z" fill="black"/>
<path d="M783.903 12.0631L786.446 11.232L787.277 13.7748L784.734 14.6059L783.903 12.0631Z" fill="black"/>
<path d="M787.775 14.2369L790.318 13.4058L791.149 15.9486L788.606 16.7797L787.775 14.2369Z" fill="black"/>
<path d="M791.32 16.4719L793.863 15.6408L794.694 18.1836L792.151 19.0147L791.32 16.4719Z" fill="black"/>
<path d="M788.596 27.3262L790.135 26.8232L790.638 28.3623L789.099 28.8653L788.596 27.3262Z" fill="black"/>
<path d="M772.803 20.5379L779.308 18.4119L780.139 20.9547L773.634 23.0808L772.803 20.5379Z" fill="black"/>
<path d="M950.75 71.75V59.5H952.5V71.75H950.75Z" fill="white"/>
<path d="M241.5 70V63H239.75V61.25H245V63H243.25V70H241.5ZM250.25 70V68.25H248.5V63H250.25V61.25H253.75V63H255.5V68.25H253.75V70H250.25ZM250.25 68.18H253.75V63.07H250.25V68.18ZM267.75 63V61.25H273V63H267.75ZM271.25 68.25V66.5H267.75V64.75H266V63H267.75V64.75H271.25V66.5H273V68.25H271.25ZM266 70V68.25H271.25V70H266ZM278.25 70V68.25H276.5V61.25H278.25V68.25H281.75V70H278.25ZM281.75 68.25V61.25H283.5V68.25H281.75ZM287 70V61.25H292.25V63H294V64.75H292.25V66.5H288.75V70H287ZM288.75 64.75H292.18V63H288.75V64.75ZM297.5 70V61.25H302.75V63H304.5V64.75H302.75V66.5H299.25V70H297.5ZM299.25 64.75H302.68V63H299.25V64.75ZM309.75 70V68.25H308V63H309.75V61.25H313.25V63H315V68.25H313.25V70H309.75ZM309.75 68.18H313.25V63.07H309.75V68.18ZM318.5 70V61.25H323.75V63H325.5V64.75H323.75V68.25H325.5V70H323.75V68.25H322V66.5H320.25V70H318.5ZM320.25 64.75H323.68V63H320.25V64.75ZM330.75 70V63H329V61.25H334.25V63H332.5V70H330.75ZM350 64.75V63H346.5V61.25H350V63H351.75V64.75H350ZM346.5 70V68.25H344.75V63H346.5V68.25H350V70H346.5ZM350 68.25V66.5H351.75V68.25H350ZM357 70V68.25H355.25V63H357V61.25H360.5V63H362.25V68.25H360.5V70H357ZM357 68.18H360.5V63.07H357V68.18ZM365.75 70V61.25H367.5V63H369.25V64.75H371V66.5H369.25V64.75H367.5V70H365.75ZM372.75 70V64.75H371V63H372.75V61.25H374.5V70H372.75ZM378 70V61.25H379.75V63H381.5V64.75H383.25V66.5H381.5V64.75H379.75V70H378ZM385 70V64.75H383.25V63H385V61.25H386.75V70H385ZM392 70V68.25H390.25V61.25H392V68.25H395.5V70H392ZM395.5 68.25V61.25H397.25V68.25H395.5ZM400.75 70V61.25H402.5V63H404.25V64.75H406V66.5H407.75V61.25H409.5V70H407.75V68.25H406V66.5H404.25V64.75H402.5V70H400.75ZM413 70V61.25H414.75V70H413ZM420 70V63H418.25V61.25H423.5V63H421.75V70H420ZM430.5 70V64.75H428.75V63H427V61.25H428.75V63H430.5V64.75H432.25V70H430.5ZM434 63V61.25H435.75V63H434ZM432.25 64.75V63H434V64.75H432.25ZM446.25 70V61.25H448V63H449.75V64.75H451.5V66.5H449.75V64.75H448V70H446.25ZM453.25 70V64.75H451.5V63H453.25V61.25H455V70H453.25ZM458.5 70V61.25H463.75V63H460.25V64.75H463.75V66.5H460.25V68.25H463.75V70H458.5ZM467.25 70V61.25H469V63H470.75V64.75H472.5V66.5H470.75V64.75H469V70H467.25ZM474.25 70V64.75H472.5V63H474.25V61.25H476V70H474.25ZM479.5 70V61.25H484.75V63H486.5V68.25H484.75V70H479.5ZM481.25 64.75H484.68V63H481.25V64.75ZM481.25 68.25H484.68V66.5H481.25V68.25ZM490 70V61.25H495.25V63H491.75V64.75H495.25V66.5H491.75V68.25H495.25V70H490ZM498.75 70V61.25H504V63H505.75V64.75H504V68.25H505.75V70H504V68.25H502.25V66.5H500.5V70H498.75ZM500.5 64.75H503.93V63H500.5V64.75ZM511 63V61.25H516.25V63H511ZM514.5 68.25V66.5H511V64.75H509.25V63H511V64.75H514.5V66.5H516.25V68.25H514.5ZM509.25 70V68.25H514.5V70H509.25ZM526.75 70V61.25H528.5V70H526.75ZM532 70V61.25H533.75V63H535.5V64.75H537.25V66.5H539V61.25H540.75V70H539V68.25H537.25V66.5H535.5V64.75H533.75V70H532ZM551.25 70V61.25H556.5V63H558.25V68.25H556.5V70H551.25ZM553 64.75H556.43V63H553V64.75ZM553 68.25H556.43V66.5H553V68.25ZM563.5 70V68.25H561.75V61.25H563.5V68.25H567V70H563.5ZM567 68.25V61.25H568.75V68.25H567ZM572.25 70V61.25H574V70H572.25ZM577.5 70V61.25H579.25V68.25H582.75V70H577.5ZM586.25 70V61.25H591.5V63H593.25V68.25H591.5V70H586.25ZM588 68.25H591.43V63H588V68.25ZM596.75 70V61.25H598.5V70H596.75ZM602 70V61.25H603.75V63H605.5V64.75H607.25V66.5H609V61.25H610.75V70H609V68.25H607.25V66.5H605.5V64.75H603.75V70H602ZM616 63V61.25H621.25V63H616ZM614.25 68.25V63H616V68.25H614.25ZM619.5 68.25V66.5H617.75V64.75H621.25V68.25H619.5ZM616 70V68.25H619.5V70H616ZM631.75 70V63H633.5V61.25H637V63H638.75V70H637V66.5H633.5V70H631.75ZM633.5 64.75H637V63.07H633.5V64.75ZM642.25 70V61.25H644V63H645.75V64.75H647.5V66.5H649.25V61.25H651V70H649.25V68.25H647.5V66.5H645.75V64.75H644V70H642.25ZM654.5 70V61.25H659.75V63H661.5V68.25H659.75V70H654.5ZM656.25 68.25H659.68V63H656.25V68.25ZM672 70V61.25H677.25V63H673.75V64.75H677.25V66.5H673.75V68.25H677.25V70H672ZM687.75 70V68.25H686V66.5H684.25V64.75H682.5V63H680.75V61.25H682.5V63H684.25V64.75H686V66.5H687.75V68.25H689.5V70H687.75ZM686 64.75V63H687.75V61.25H689.5V63H687.75V64.75H686ZM682.5 68.25V66.5H684.25V68.25H682.5ZM680.75 70V68.25H682.5V70H680.75ZM693 70V61.25H698.25V63H700V64.75H698.25V66.5H694.75V70H693ZM694.75 64.75H698.18V63H694.75V64.75ZM703.5 70V61.25H705.25V68.25H708.75V70H703.5ZM714 70V68.25H712.25V63H714V61.25H717.5V63H719.25V68.25H717.5V70H714ZM714 68.18H717.5V63.07H714V68.18ZM722.75 70V61.25H728V63H729.75V64.75H728V68.25H729.75V70H728V68.25H726.25V66.5H724.5V70H722.75ZM724.5 64.75H727.93V63H724.5V64.75ZM733.25 70V61.25H735V70H733.25ZM738.5 70V61.25H740.25V63H742V64.75H743.75V66.5H745.5V61.25H747.25V70H745.5V68.25H743.75V66.5H742V64.75H740.25V70H738.5ZM752.5 63V61.25H757.75V63H752.5ZM750.75 68.25V63H752.5V68.25H750.75ZM756 68.25V66.5H754.25V64.75H757.75V68.25H756ZM752.5 70V68.25H756V70H752.5ZM770 70V63H768.25V61.25H773.5V63H771.75V70H770ZM777 70V61.25H778.75V64.75H782.25V61.25H784V70H782.25V66.5H778.75V70H777ZM787.5 70V61.25H792.75V63H789.25V64.75H792.75V66.5H789.25V68.25H792.75V70H787.5ZM808.5 64.75V63H805V61.25H808.5V63H810.25V64.75H808.5ZM805 70V68.25H803.25V63H805V68.25H808.5V70H805ZM808.5 68.25V66.5H810.25V68.25H808.5ZM813.75 70V61.25H815.5V64.75H817.25V66.5H819V68.25H820.75V70H819V68.25H817.25V66.5H815.5V70H813.75ZM819 63V61.25H820.75V63H819ZM817.25 64.75V63H819V64.75H817.25ZM824.25 70V61.25H829.5V63H831.25V68.25H829.5V70H824.25ZM826 64.75H829.43V63H826V64.75ZM826 68.25H829.43V66.5H826V68.25ZM841.75 70V61.25H847V63H843.5V64.75H847V66.5H843.5V68.25H847V70H841.75ZM855.75 64.75V63H852.25V61.25H855.75V63H857.5V64.75H855.75ZM852.25 70V68.25H850.5V63H852.25V68.25H855.75V70H852.25ZM855.75 68.25V66.5H857.5V68.25H855.75ZM862.75 70V68.25H861V63H862.75V61.25H866.25V63H868V68.25H866.25V70H862.75ZM862.75 68.18H866.25V63.07H862.75V68.18ZM873.25 63V61.25H878.5V63H873.25ZM876.75 68.25V66.5H873.25V64.75H871.5V63H873.25V64.75H876.75V66.5H878.5V68.25H876.75ZM871.5 70V68.25H876.75V70H871.5ZM885.5 70V64.75H883.75V63H882V61.25H883.75V63H885.5V64.75H887.25V70H885.5ZM889 63V61.25H890.75V63H889ZM887.25 64.75V63H889V64.75H887.25ZM896 63V61.25H901.25V63H896ZM899.5 68.25V66.5H896V64.75H894.25V63H896V64.75H899.5V66.5H901.25V68.25H899.5ZM894.25 70V68.25H899.5V70H894.25ZM906.5 70V63H904.75V61.25H910V63H908.25V70H906.5ZM913.5 70V61.25H918.75V63H915.25V64.75H918.75V66.5H915.25V68.25H918.75V70H913.5ZM922.25 70V61.25H924V63H925.75V64.75H927.5V66.5H925.75V64.75H924V70H922.25ZM929.25 70V64.75H927.5V63H929.25V61.25H931V70H929.25ZM934.5 70V68.25H936.25V70H934.5Z" fill="white"/>
<path d="M250 27.75V24H242.5V20.25H250V24H253.75V27.75H250ZM242.5 39V35.25H238.75V24H242.5V35.25H250V39H242.5ZM250 35.25V31.5H253.75V35.25H250ZM259.25 39V20.25H263V27.75H266.75V31.5H270.5V35.25H274.25V39H270.5V35.25H266.75V31.5H263V39H259.25ZM270.5 24V20.25H274.25V24H270.5ZM266.75 27.75V24H270.5V27.75H266.75ZM279.75 39V20.25H291V24H294.75V35.25H291V39H279.75ZM283.5 27.75H290.85V24H283.5V27.75ZM283.5 35.25H290.85V31.5H283.5V35.25ZM324.5 27.75V24H317V20.25H324.5V24H328.25V27.75H324.5ZM317 39V35.25H313.25V24H317V35.25H324.5V39H317ZM324.5 35.25V31.5H328.25V35.25H324.5ZM337.5 39V35.25H333.75V24H337.5V20.25H345V24H348.75V35.25H345V39H337.5ZM337.5 35.1H345V24.15H337.5V35.1ZM354.25 39V20.25H358V24H361.75V27.75H365.5V31.5H361.75V27.75H358V39H354.25ZM369.25 39V27.75H365.5V24H369.25V20.25H373V39H369.25ZM378.5 39V20.25H382.25V24H386V27.75H389.75V31.5H386V27.75H382.25V39H378.5ZM393.5 39V27.75H389.75V24H393.5V20.25H397.25V39H393.5ZM406.5 39V35.25H402.75V20.25H406.5V35.25H414V39H406.5ZM414 35.25V20.25H417.75V35.25H414ZM423.25 39V20.25H427V24H430.75V27.75H434.5V31.5H438.25V20.25H442V39H438.25V35.25H434.5V31.5H430.75V27.75H427V39H423.25ZM447.5 39V20.25H451.25V39H447.5ZM460.5 39V24H456.75V20.25H468V24H464.25V39H460.5ZM481 39V27.75H477.25V24H473.5V20.25H477.25V24H481V27.75H484.75V39H481ZM488.5 24V20.25H492.25V24H488.5ZM484.75 27.75V24H488.5V27.75H484.75ZM510.75 39V20.25H522V24H514.5V27.75H522V31.5H514.5V39H510.75ZM531.25 39V35.25H527.5V20.25H531.25V35.25H538.75V39H531.25ZM538.75 35.25V20.25H542.5V35.25H538.75ZM548 39V20.25H551.75V24H555.5V27.75H559.25V31.5H563V20.25H566.75V39H563V35.25H559.25V31.5H555.5V27.75H551.75V39H548ZM572.25 39V20.25H583.5V24H587.25V35.25H583.5V39H572.25ZM576 35.25H583.35V24H576V35.25ZM605.75 39V20.25H617V24H620.75V35.25H617V39H605.75ZM609.5 35.25H616.85V24H609.5V35.25ZM626.25 39V24H630V20.25H637.5V24H641.25V39H637.5V31.5H630V39H626.25ZM630 27.75H637.5V24.15H630V27.75ZM650.5 39V35.25H646.75V24H650.5V20.25H658V24H661.75V35.25H658V39H650.5ZM650.5 35.1H658V24.15H650.5V35.1Z" fill="#00CC9B"/>
<path d="M150 18H152V20H154V22H156V24H158V26H160V28H162V30H164V32H166V34H168V36H170V38H172V40H174V42H163V68.5H150V18Z" fill="#00CC9B"/>
<path d="M150 18V16H152V18H150Z" fill="#1E2229"/>
<path d="M152 20V18H154V20H152Z" fill="#1E2229"/>
<path d="M154 22V20H156V22H154Z" fill="#1E2229"/>
<path d="M156 24V22H158V24H156Z" fill="#1E2229"/>
<path d="M158 26V24H160V26H158Z" fill="#1E2229"/>
<path d="M160 28V26H162V28H160Z" fill="#1E2229"/>
<path d="M162 30V28H164V30H162Z" fill="#1E2229"/>
<path d="M164 32V30H166V32H164Z" fill="#1E2229"/>
<path d="M166 34V32H168V34H166Z" fill="#1E2229"/>
<path d="M168 36V34H170V36H168Z" fill="#1E2229"/>
<path d="M170 38V36H172V38H170Z" fill="#1E2229"/>
<path d="M172 40V38H174V40H172Z" fill="#1E2229"/>
<path d="M174 42V40H176V42H174Z" fill="#1E2229"/>
<path d="M150 20V18H152V20H150Z" fill="#009A75"/>
<path d="M152 22V20H154V22H152Z" fill="#009A75"/>
<path d="M154 24V22H156V24H154Z" fill="#009A75"/>
<path d="M156 26V24H158V26H156Z" fill="#009A75"/>
<path d="M158 28V26H160V28H158Z" fill="#009A75"/>
<path d="M160 30V28H162V30H160Z" fill="#009A75"/>
<path d="M162 32V30H164V32H162Z" fill="#009A75"/>
<path d="M164 34V32H166V34H164Z" fill="#009A75"/>
<path d="M166 36V34H168V36H166Z" fill="#009A75"/>
<path d="M168 38V36H170V38H168Z" fill="#009A75"/>
<path d="M170 40V38H172V40H170Z" fill="#009A75"/>
<path d="M172 42V40H174V42H172Z" fill="#009A75"/>
<path d="M174 44V42H176V44H174Z" fill="#009A75"/>
<path d="M165 44V42H174V44H165Z" fill="#1E2229"/>
<path d="M150 71V69H163V71H150Z" fill="#1E2229"/>
<path d="M148 69V18H150V69H148Z" fill="#1E2229"/>
<path d="M163 69V44H165V69H163Z" fill="#1E2229"/>
<path d="M148 18V16H150V18H148Z" fill="#2B313B"/>
<path d="M148 71V69H150V71H148Z" fill="#2B313B"/>
<path d="M163 71V69H165V71H163Z" fill="#2B313B"/>
<path d="M174 44V42H176V44H174Z" fill="#2B313B"/>
<path d="M163 44V42H165V44H163Z" fill="#00926E"/>
<path d="M150 67V20H152V67H150Z" fill="#00A980"/>
<path d="M150 69V67H163V69H150Z" fill="#00A980"/>
<path d="M150 67.5V65.5H163V67.5H150Z" fill="#00A980" fill-opacity="0.5"/>
<path d="M150 65.5V63.5H163V65.5H150Z" fill="#00A980" fill-opacity="0.2"/>
<path d="M150 63.5V61.5H163V63.5H150Z" fill="#00A980" fill-opacity="0.1"/>
<path d="M204 69H202V67H200V65H198V63H196V61H194V59H192V57H190V55H188V53H186V51H184V49H182V47H180V45H191V18.5H204V69Z" fill="#00CC9B"/>
<path d="M193 18V43H191V18H193Z" fill="#00A980"/>
<path d="M204 69V71H202V69H204Z" fill="#1E2229"/>
<path d="M202 67V69H200V67H202Z" fill="#1E2229"/>
<path d="M200 65V67H198V65H200Z" fill="#1E2229"/>
<path d="M198 63V65H196V63H198Z" fill="#1E2229"/>
<path d="M196 61V63H194V61H196Z" fill="#1E2229"/>
<path d="M194 59V61H192V59H194Z" fill="#1E2229"/>
<path d="M192 57V59H190V57H192Z" fill="#1E2229"/>
<path d="M190 55V57H188V55H190Z" fill="#1E2229"/>
<path d="M188 53V55H186V53H188Z" fill="#1E2229"/>
<path d="M186 51V53H184V51H186Z" fill="#1E2229"/>
<path d="M184 49V51H182V49H184Z" fill="#1E2229"/>
<path d="M182 47V49H180V47H182Z" fill="#1E2229"/>
<path d="M180 45V47H178V45H180Z" fill="#1E2229"/>
<path d="M204 67V69H202V67H204Z" fill="#009A75"/>
<path d="M202 65V67H200V65H202Z" fill="#009A75"/>
<path d="M200 63V65H198V63H200Z" fill="#009A75"/>
<path d="M198 61V63H196V61H198Z" fill="#009A75"/>
<path d="M196 59V61H194V59H196Z" fill="#009A75"/>
<path d="M194 57V59H192V57H194Z" fill="#009A75"/>
<path d="M192 55V57H190V55H192Z" fill="#009A75"/>
<path d="M190 53V55H188V53H190Z" fill="#009A75"/>
<path d="M188 51V53H186V51H188Z" fill="#009A75"/>
<path d="M186 49V51H184V49H186Z" fill="#009A75"/>
<path d="M184 47V49H182V47H184Z" fill="#009A75"/>
<path d="M182 45V47H180V45H182Z" fill="#009A75"/>
<path d="M180 43V45H178V43H180Z" fill="#009A75"/>
<path d="M189 43V45H180V43H189Z" fill="#1E2229"/>
<path d="M204 16V18H191V16H204Z" fill="#1E2229"/>
<path d="M206 18V69H204V18H206Z" fill="#1E2229"/>
<path d="M191 18V43H189V18H191Z" fill="#1E2229"/>
<path d="M206 69V71H204V69H206Z" fill="#2B313B"/>
<path d="M206 16V18H204V16H206Z" fill="#2B313B"/>
<path d="M191 16V18H189V16H191Z" fill="#2B313B"/>
<path d="M180 43V45H178V43H180Z" fill="#2B313B"/>
<path d="M191 43V45H189V43H191Z" fill="#00926E"/>
<path d="M204 18V20H191V18H204Z" fill="#00A980"/>
<path d="M204 19.5V21.5H191V19.5H204Z" fill="#00A980" fill-opacity="0.5"/>
<path d="M204 21.5V23.5H191V21.5H204Z" fill="#00A980" fill-opacity="0.2"/>
<path d="M204 23.5V25.5H191V23.5H204Z" fill="#00A980" fill-opacity="0.1"/>
</g>
<defs>
<clipPath id="clip0_331_49">
<rect width="1104" height="100" fill="white"/>
</clipPath>
</defs>
</svg>
