<svg width="15" height="15" viewBox="0 0 15 15" fill="none" xmlns="http://www.w3.org/2000/svg">
<g id="icon_add">
<path id="&#229;&#189;&#162;&#231;&#138;&#182;" d="M7.5 14.5C6.53167 14.5 5.62167 14.3162 4.77 13.9487C3.91833 13.5812 3.1775 13.0825 2.5475 12.4525C1.9175 11.8225 1.41875 11.0817 1.05125 10.23C0.68375 9.37833 0.5 8.46833 0.5 7.5C0.5 6.53167 0.68375 5.62167 1.05125 4.77C1.41875 3.91833 1.9175 3.1775 2.5475 2.5475C3.1775 1.9175 3.91833 1.41875 4.77 1.05125C5.62167 0.68375 6.53167 0.5 7.5 0.5C8.46833 0.5 9.37833 0.68375 10.23 1.05125C11.0817 1.41875 11.8225 1.9175 12.4525 2.5475C13.0825 3.1775 13.5812 3.91833 13.9487 4.77C14.3162 5.62167 14.5 6.53167 14.5 7.5C14.5 8.46833 14.3162 9.37833 13.9487 10.23C13.5812 11.0817 13.0825 11.8225 12.4525 12.4525C11.8225 13.0825 11.0817 13.5812 10.23 13.9487C9.37833 14.3162 8.46833 14.5 7.5 14.5Z" fill="#1C2027" stroke="white"/>
<path id="&#232;&#183;&#175;&#229;&#190;&#132;" d="M6.8 11H8.2V8.2H11V6.8H8.2V4H6.8V6.8H4V8.2H6.8V11Z" fill="white"/>
</g>
</svg>
