<svg width="100" height="100" viewBox="0 0 100 100" fill="none" xmlns="http://www.w3.org/2000/svg">
<path d="M43.1248 70.8333L66.6665 47.2916L60.6248 41.25L43.0207 58.8541L34.2707 50.1041L28.3332 56.0416L43.1248 70.8333ZM27.0832 83.3333C20.7637 83.3333 15.3644 81.1458 10.8853 76.7708C6.40609 72.3958 4.1665 67.0486 4.1665 60.7291C4.1665 55.3125 5.79845 50.4861 9.06234 46.25C12.3262 42.0138 16.5971 39.3055 21.8748 38.125C23.6109 31.7361 27.0832 26.5625 32.2915 22.6041C37.4998 18.6458 43.4026 16.6666 49.9998 16.6666C58.1248 16.6666 65.0172 19.4965 70.6769 25.1562C76.3366 30.8159 79.1665 37.7083 79.1665 45.8333C83.9582 46.3888 87.9339 48.4548 91.0936 52.0312C94.2533 55.6076 95.8332 59.7916 95.8332 64.5833C95.8332 69.7916 94.0103 74.2187 90.3644 77.8645C86.7186 81.5104 82.2915 83.3333 77.0832 83.3333H27.0832ZM27.0832 75H77.0832C79.9998 75 82.4651 73.993 84.479 71.9791C86.4929 69.9652 87.4998 67.5 87.4998 64.5833C87.4998 61.6666 86.4929 59.2013 84.479 57.1875C82.4651 55.1736 79.9998 54.1666 77.0832 54.1666H70.8332V45.8333C70.8332 40.0694 68.8019 35.1562 64.7394 31.0937C60.6769 27.0312 55.7637 25 49.9998 25C44.2359 25 39.3228 27.0312 35.2603 31.0937C31.1978 35.1562 29.1665 40.0694 29.1665 45.8333H27.0832C23.0554 45.8333 19.6179 47.2569 16.7707 50.1041C13.9234 52.9513 12.4998 56.3888 12.4998 60.4166C12.4998 64.4444 13.9234 67.8819 16.7707 70.7291C19.6179 73.5763 23.0554 75 27.0832 75Z" fill="#00CC9B"/>
</svg>
